<?xml version="1.0" encoding="UTF-8"?>
<svg version="1.1" xmlns="http://www.w3.org/2000/svg" width="500" height="500">
<path d="M0 0 C4.08134751 -0.05938469 8.15338145 0.00169673 12.234375 0.08203125 C13.85859375 0.08976562 13.85859375 0.08976562 15.515625 0.09765625 C37.20843611 0.86457381 59.19270813 13.10076196 75.234375 27.08203125 C75.234375 27.74203125 75.234375 28.40203125 75.234375 29.08203125 C76.224375 29.41203125 77.214375 29.74203125 78.234375 30.08203125 C78.234375 30.74203125 78.234375 31.40203125 78.234375 32.08203125 C78.894375 32.08203125 79.554375 32.08203125 80.234375 32.08203125 C83.47099907 35.54937191 86.32804471 39.33641417 89.234375 43.08203125 C89.85054688 43.87222656 90.46671875 44.66242187 91.1015625 45.4765625 C100.64477839 58.38409183 108.78495449 75.15312518 110.484375 91.19140625 C110.855625 92.12726563 110.855625 92.12726563 111.234375 93.08203125 C112.88831815 93.77966604 114.5578723 94.44050111 116.234375 95.08203125 C120.12172172 97.14232868 123.88936097 99.39873765 127.671875 101.64453125 C129.20811523 102.51948242 129.20811523 102.51948242 130.77539062 103.41210938 C137.76690188 107.57986463 143.44272946 112.11954536 145.86791992 120.19042969 C147.24710309 127.30962432 146.70860453 133.75397032 143.234375 140.08203125 C142.5228125 141.56703125 142.5228125 141.56703125 141.796875 143.08203125 C134.29508949 151.86460941 120.86379556 156.29918721 110.6015625 161.140625 C109.80862793 161.51501709 109.01569336 161.88940918 108.19873047 162.27514648 C106.234375 163.08203125 106.234375 163.08203125 104.234375 163.08203125 C104.11320312 163.81164062 103.99203125 164.54125 103.8671875 165.29296875 C100.13790128 181.72945248 86.0042976 196.8025221 74.234375 208.08203125 C74.564375 209.07203125 74.894375 210.06203125 75.234375 211.08203125 C76.224375 211.41203125 77.214375 211.74203125 78.234375 212.08203125 C78.234375 212.74203125 78.234375 213.40203125 78.234375 214.08203125 C78.894375 214.08203125 79.554375 214.08203125 80.234375 214.08203125 C90.93553493 227.20239434 96.97937186 241.88556769 101.234375 258.08203125 C101.894375 258.08203125 102.554375 258.08203125 103.234375 258.08203125 C103.234375 257.09203125 103.234375 256.10203125 103.234375 255.08203125 C103.894375 255.08203125 104.554375 255.08203125 105.234375 255.08203125 C105.605625 254.27765625 105.605625 254.27765625 105.984375 253.45703125 C107.234375 251.08203125 107.234375 251.08203125 109.171875 248.33203125 C110.82654923 245.72466579 111.64657038 244.04132356 112.546875 241.20703125 C114.43984992 235.79853147 118.20589947 231.05683586 123.01953125 227.91796875 C129.17883402 225.59329363 135.95880108 225.92190889 142.4453125 225.9140625 C143.41288483 225.9107341 144.38045715 225.9074057 145.37734985 225.90397644 C147.4162753 225.8989331 149.45520894 225.89656731 151.49414062 225.89672852 C154.59258789 225.89454309 157.69067814 225.87636246 160.7890625 225.85742188 C162.77864463 225.85448709 164.76822843 225.85250286 166.7578125 225.8515625 C167.67372162 225.84437698 168.58963074 225.83719147 169.53329468 225.82978821 C178.32108997 225.86059374 186.72948329 226.61093119 193.234375 233.08203125 C196.37324601 237.42302307 198.3494525 241.76348946 198.38154602 247.14738464 C198.39227898 248.38573059 198.39227898 248.38573059 198.40322876 249.64909363 C198.40591766 250.55146255 198.40860657 251.45383148 198.41137695 252.38354492 C198.41794815 253.33673615 198.42451935 254.28992737 198.43128967 255.27200317 C198.4510243 258.43133624 198.46268648 261.59062174 198.47265625 264.75 C198.47876954 266.36923087 198.47876954 266.36923087 198.48500633 268.02117348 C198.50586907 273.7362003 198.52016919 279.4512031 198.52954102 285.16625977 C198.54059794 291.06315216 198.57498932 296.95966643 198.61471272 302.85642529 C198.64088707 307.39556062 198.64923367 311.93460604 198.65282249 316.4738102 C198.65768732 318.64706281 198.6692983 320.82031143 198.68786049 322.99349022 C198.7122658 326.04047765 198.71128395 329.08648921 198.7043457 332.13354492 C198.71715576 333.02579269 198.72996582 333.91804047 198.74316406 334.83732605 C198.68650723 341.68840627 196.82975931 346.64364488 192.70703125 352.10546875 C192.24167969 352.55148437 191.77632813 352.9975 191.296875 353.45703125 C190.60271484 354.14925781 190.60271484 354.14925781 189.89453125 354.85546875 C186.01311402 357.72315113 182.25118055 358.33317823 177.51367188 358.34082031 C176.38900513 358.34712463 175.26433838 358.35342896 174.10559082 358.35992432 C172.9002771 358.35587585 171.69496338 358.35182739 170.453125 358.34765625 C169.20688354 358.3495697 167.96064209 358.35148315 166.67663574 358.35345459 C163.37083936 358.35516218 160.06523177 358.34712826 156.75946045 358.3359375 C154.73622642 358.33203482 152.7131659 358.33592438 150.68994141 358.34277344 C146.7984208 358.35512898 142.90715631 358.35363122 139.015625 358.34765625 C137.81031128 358.35170471 136.60499756 358.35575317 135.36315918 358.35992432 C133.67615906 358.35046783 133.67615906 358.35046783 131.95507812 358.34082031 C130.47545593 358.33843353 130.47545593 358.33843353 128.96594238 358.33599854 C126.0579498 358.06562813 123.8769867 357.29553071 121.234375 356.08203125 C121.234375 355.42203125 121.234375 354.76203125 121.234375 354.08203125 C120.368125 353.74171875 120.368125 353.74171875 119.484375 353.39453125 C115.45147719 351.04200752 113.55840006 347.98930143 112.00390625 343.63671875 C111.68808594 342.42242187 111.37226563 341.208125 111.046875 339.95703125 C110.72332031 338.73757813 110.39976562 337.518125 110.06640625 336.26171875 C109.79183594 335.21242188 109.51726562 334.163125 109.234375 333.08203125 C108.904375 332.09203125 108.574375 331.10203125 108.234375 330.08203125 C107.244375 329.75203125 106.254375 329.42203125 105.234375 329.08203125 C100.80781897 323.23815565 97.35480706 316.69734721 94.234375 310.08203125 C93.8940625 310.83226562 93.55375 311.5825 93.203125 312.35546875 C89.68131098 319.79249091 85.58587934 325.85883858 80.234375 332.08203125 C79.27537708 333.2898372 78.31693084 334.49808169 77.359375 335.70703125 C76.658125 336.49078125 75.956875 337.27453125 75.234375 338.08203125 C74.574375 338.08203125 73.914375 338.08203125 73.234375 338.08203125 C73.234375 338.74203125 73.234375 339.40203125 73.234375 340.08203125 C71.33383375 341.76200094 69.44105268 343.30574811 67.421875 344.83203125 C66.82947021 345.2808667 66.23706543 345.72970215 65.62670898 346.19213867 C47.71786266 359.50798863 28.78398377 363.39335208 6.94384766 363.35668945 C5.21949545 363.36104434 3.49514518 363.36623007 1.77079773 363.37217712 C-2.88425603 363.38549459 -7.53922824 363.38615394 -12.19429731 363.38361382 C-16.09311048 363.3825392 -19.99190747 363.38743998 -23.89071715 363.39221925 C-33.09512598 363.40328929 -42.29949399 363.40376592 -51.50390625 363.39770508 C-60.97141165 363.39166648 -70.4387684 363.40397919 -79.90624845 363.42527515 C-88.06118027 363.44293818 -96.21606497 363.44888512 -104.37101519 363.4456374 C-109.22994258 363.44383194 -114.08876389 363.44638671 -118.9476738 363.46035194 C-123.51965935 363.47300254 -128.09141449 363.47091839 -132.66339684 363.45794106 C-134.33178094 363.45559141 -136.00018163 363.45825141 -137.66854668 363.46656418 C-147.39857623 363.51151222 -156.34622176 362.79364602 -165.765625 360.08203125 C-166.80357901 359.79198873 -167.84153301 359.5019462 -168.91094017 359.20311451 C-179.62784478 356.09962739 -191.72772662 349.92023029 -199.765625 342.08203125 C-199.765625 341.42203125 -199.765625 340.76203125 -199.765625 340.08203125 C-200.425625 340.08203125 -201.085625 340.08203125 -201.765625 340.08203125 C-201.765625 339.42203125 -201.765625 338.76203125 -201.765625 338.08203125 C-202.755625 337.75203125 -203.745625 337.42203125 -204.765625 337.08203125 C-204.765625 336.42203125 -204.765625 335.76203125 -204.765625 335.08203125 C-205.33667969 334.870625 -205.90773437 334.65921875 -206.49609375 334.44140625 C-217.7594779 327.69500748 -225.26061574 306.92774774 -228.3059082 294.95849609 C-230.15935367 286.64236727 -230.11902205 278.38250488 -230.15625 269.89453125 C-230.29894393 262.8391092 -231.02604459 258.04812821 -234.765625 252.08203125 C-235.64553589 250.48387377 -236.51886652 248.88208142 -237.38671875 247.27734375 C-238.79148727 244.74286628 -240.2009023 242.2110204 -241.61132812 239.6796875 C-254.88872794 215.71740666 -254.88872794 215.71740666 -251.65234375 204.21484375 C-248.77739393 197.29976621 -244.43093764 193.23290632 -237.765625 190.08203125 C-236.5590625 189.46328125 -236.5590625 189.46328125 -235.328125 188.83203125 C-228.76751392 186.9118524 -222.24708147 188.4309802 -215.65625 189.50390625 C-193.82812752 193.70271791 -193.82812752 193.70271791 -173.19213867 189.27587891 C-157.62286718 181.61577853 -138.43394969 183.41098244 -121.53967285 183.34381104 C-117.61030035 183.32400097 -113.68116417 183.28206124 -109.75195312 183.2421875 C-102.08990835 183.16759203 -94.42796488 183.11687779 -86.765625 183.08203125 C-87.3112207 182.0775293 -87.85681641 181.07302734 -88.41894531 180.03808594 C-89.14405978 178.6934562 -89.86898457 177.34872416 -90.59375 176.00390625 C-90.95227051 175.34503418 -91.31079102 174.68616211 -91.68017578 174.00732422 C-106.32167038 146.76811344 -108.66916066 112.29356933 -100.32421875 82.75 C-95.81227815 67.91849679 -89.18806259 51.83253568 -78.765625 40.08203125 C-78.105625 40.08203125 -77.445625 40.08203125 -76.765625 40.08203125 C-76.53875 39.52515625 -76.311875 38.96828125 -76.078125 38.39453125 C-74.38419264 35.40998376 -72.24947802 33.4554908 -69.765625 31.08203125 C-69.1675 30.46328125 -68.569375 29.84453125 -67.953125 29.20703125 C-67.025 28.24796875 -67.025 28.24796875 -66.078125 27.26953125 C-65.20607422 26.36267578 -65.20607422 26.36267578 -64.31640625 25.4375 C-62.765625 24.08203125 -62.765625 24.08203125 -60.765625 24.08203125 C-60.765625 23.42203125 -60.765625 22.76203125 -60.765625 22.08203125 C-43.52316508 8.17050109 -22.00824557 0.47943274 0 0 Z M110.234375 271.08203125 C105.17731838 280.34938153 103.64108564 289.94939579 106.046875 300.39453125 C107.16004844 303.85122774 108.48659731 306.90425364 110.234375 310.08203125 C110.564375 310.08203125 110.894375 310.08203125 111.234375 310.08203125 C111.234375 297.21203125 111.234375 284.34203125 111.234375 271.08203125 C110.904375 271.08203125 110.574375 271.08203125 110.234375 271.08203125 Z " fill="#0F0E1E" transform="translate(260.765625,18.91796875)"/>
<path d="M0 0 C1.15113281 -0.02578125 2.30226563 -0.0515625 3.48828125 -0.078125 C7.01885523 0.28398515 8.04717513 1.01587896 10.6875 3.25 C13.0287566 4.22979345 13.0287566 4.22979345 15.4375 4.9375 C16.23671875 5.18886719 17.0359375 5.44023437 17.859375 5.69921875 C18.46265625 5.88097656 19.0659375 6.06273437 19.6875 6.25 C19.6875 6.91 19.6875 7.57 19.6875 8.25 C20.3475 8.25 21.0075 8.25 21.6875 8.25 C21.93637295 10.35192697 22.1609719 12.45673964 22.375 14.5625 C22.50261719 15.73425781 22.63023437 16.90601563 22.76171875 18.11328125 C22.6875 21.25 22.6875 21.25 21.51953125 23.1015625 C19.23831684 24.5315775 17.34446674 24.90525659 14.6875 25.3125 C11.20020117 25.85739044 9.70804387 26.23630408 6.6875 28.25 C4.31494141 28.50878906 4.31494141 28.50878906 1.5390625 28.515625 C0.53359375 28.51820313 -0.471875 28.52078125 -1.5078125 28.5234375 C-3.08175781 28.51183594 -3.08175781 28.51183594 -4.6875 28.5 C-6.24984375 28.51160156 -6.24984375 28.51160156 -7.84375 28.5234375 C-8.85179687 28.52085937 -9.85984375 28.51828125 -10.8984375 28.515625 C-11.8167334 28.51336914 -12.7350293 28.51111328 -13.68115234 28.50878906 C-16.58606611 28.22309519 -18.7177736 27.58176621 -21.3125 26.25 C-22.00003301 24.59183216 -22.66811283 22.92540664 -23.3125 21.25 C-25.24868425 20.57843384 -25.24868425 20.57843384 -27.3125 20.25 C-29.6774042 18.56078271 -30.2326684 17.69477606 -30.75 14.8125 C-30.17692486 11.45591702 -28.97636789 10.3049838 -26.3125 8.25 C-25.3225 8.25 -24.3325 8.25 -23.3125 8.25 C-23.10625 7.46625 -22.9 6.6825 -22.6875 5.875 C-21.3125 3.25 -21.3125 3.25 -18.6875 1.9375 C-14.7658333 1.13864197 -11.30847941 1.18227154 -7.3125 1.25 C-5.45145086 -0.61104914 -2.49213923 0.03326548 0 0 Z " fill="#A3A3A8" transform="translate(411.3125,206.75)"/>
<path d="M0 0 C0.66 0.66 1.32 1.32 2 2 C3.2375 2.495 3.2375 2.495 4.5 3 C7 4 7 4 9 6 C9.51953125 8.49609375 9.51953125 8.49609375 9.8125 11.4375 C9.92207031 12.40558594 10.03164063 13.37367188 10.14453125 14.37109375 C10 17 10 17 8.83984375 18.70703125 C3.9823383 22.12069219 -1.84716978 24.14352201 -7.75 23.75 C-8.8225 23.5025 -9.895 23.255 -11 23 C-12.216875 23.04125 -13.43375 23.0825 -14.6875 23.125 C-18 23 -18 23 -20.4375 21.6875 C-22 20 -22 20 -22 17 C-22.639375 16.690625 -23.27875 16.38125 -23.9375 16.0625 C-26 15 -26 15 -27 14 C-27.30813578 11.07271007 -27.43574835 9.57439555 -25.625 7.1875 C-24 6 -24 6 -22 6 C-21.731875 5.38125 -21.46375 4.7625 -21.1875 4.125 C-20 2 -20 2 -17 0 C-11.26978102 -1.29975381 -5.73322085 -1.10641104 0 0 Z " fill="#A5A6AA" transform="translate(448,174)"/>
<path d="M0 0 C2.75969115 3.16764549 2.57207363 7.52138834 2.34765625 11.546875 C1.34765625 13.546875 1.34765625 13.546875 -0.48046875 14.43359375 C-7.77327498 16.84492484 -14.09104322 16.53055516 -21.65234375 15.546875 C-21.77480469 14.91265625 -21.89726562 14.2784375 -22.0234375 13.625 C-22.45930466 11.34970933 -22.45930466 11.34970933 -24.71484375 10.296875 C-25.35421875 10.049375 -25.99359375 9.801875 -26.65234375 9.546875 C-26.65234375 7.896875 -26.65234375 6.246875 -26.65234375 4.546875 C-26.01296875 4.27875 -25.37359375 4.010625 -24.71484375 3.734375 C-22.32102689 2.66019748 -22.32102689 2.66019748 -21.65234375 -0.453125 C-14.4772881 -2.84481022 -6.76148461 -4.25095616 0 0 Z " fill="#A8A8AD" transform="translate(437.65234375,138.453125)"/>
<path d="M0 0 C1.44711365 -0.00287018 1.44711365 -0.00287018 2.92346191 -0.00579834 C4.95044213 -0.00715114 6.97743128 -0.00351844 9.00439453 0.00488281 C12.08516124 0.01559514 15.16534491 0.00495643 18.24609375 -0.0078125 C20.22656377 -0.00649074 22.20703343 -0.00392802 24.1875 0 C25.09713501 -0.00404846 26.00677002 -0.00809692 26.94396973 -0.01226807 C41.42061464 0.09248964 41.42061464 0.09248964 45.59375 4.265625 C43.94375 4.595625 42.29375 4.925625 40.59375 5.265625 C40.59375 4.275625 40.59375 3.285625 40.59375 2.265625 C33.34389115 2.34999349 26.09425003 2.44486295 18.84470654 2.55315208 C15.47846284 2.60310462 12.11225037 2.64943447 8.74584961 2.6875 C4.8759502 2.73305335 1.00640975 2.79106441 -2.86328125 2.8515625 C-4.07272903 2.86311371 -5.28217682 2.87466492 -6.52827454 2.88656616 C-7.64921005 2.90643585 -8.77014557 2.92630554 -9.92504883 2.94677734 C-10.91322098 2.96010101 -11.90139313 2.97342468 -12.91950989 2.9871521 C-15.65643811 3.10116426 -15.65643811 3.10116426 -18.40625 5.265625 C-19.59857613 7.31566455 -19.59857613 7.31566455 -20.40625 9.265625 C-20.73625 8.605625 -21.06625 7.945625 -21.40625 7.265625 C-22.39625 6.935625 -23.38625 6.605625 -24.40625 6.265625 C-17.67872363 -0.24488439 -8.8708946 -0.0394812 0 0 Z " fill="#8E8E93" transform="translate(403.40625,244.734375)"/>
<path d="M0 0 C-3.50538557 1.96301592 -7.13351728 2.95902388 -11 4 C-10.34 4.66 -9.68 5.32 -9 6 C-10.65 6.33 -12.3 6.66 -14 7 C-13.34 7.66 -12.68 8.32 -12 9 C-13.32 9 -14.64 9 -16 9 C-16 8.34 -16 7.68 -16 7 C-16.99 7 -17.98 7 -19 7 C-18.67 7.99 -18.34 8.98 -18 10 C-18.99 9.67 -19.98 9.34 -21 9 C-23.05893621 8.77674186 -25.12233653 8.59294241 -27.1875 8.4375 C-28.27417969 8.35371094 -29.36085938 8.26992187 -30.48046875 8.18359375 C-31.31191406 8.12300781 -32.14335938 8.06242188 -33 8 C-33 7.67 -33 7.34 -33 7 C-32.154375 6.97421875 -31.30875 6.9484375 -30.4375 6.921875 C-24.15833775 6.60791689 -19.23837969 6.15445666 -13.76953125 2.98828125 C-9.44602995 0.57361055 -4.89970776 -0.29695199 0 0 Z " fill="#84848D" transform="translate(102,205)"/>
<path d="M0 0 C0.99 0.33 1.98 0.66 3 1 C3.25 3.25 3.25 3.25 3 6 C1.0625 8.1875 1.0625 8.1875 -1 10 C-1.33 10.66 -1.66 11.32 -2 12 C-2.99 11.67 -3.98 11.34 -5 11 C-5 9.35 -5 7.7 -5 6 C-4.360625 5.7525 -3.72125 5.505 -3.0625 5.25 C-0.81258459 4.18437567 -0.81258459 4.18437567 -0.25 1.875 C-0.1675 1.25625 -0.085 0.6375 0 0 Z " fill="#9A9B9F" transform="translate(428,177)"/>
<path d="M0 0 C0.33 0.66 0.66 1.32 1 2 C0.34 2.556875 -0.32 3.11375 -1 3.6875 C-3.25492211 5.84062308 -3.25492211 5.84062308 -3.25 8.75 C-3.1675 9.4925 -3.085 10.235 -3 11 C-2.34 11.33 -1.68 11.66 -1 12 C-0.34 10.68 0.32 9.36 1 8 C2.10732122 11.32196365 1.85064093 12.68250039 1 16 C0.67 16.66 0.34 17.32 0 18 C-0.12375 17.071875 -0.12375 17.071875 -0.25 16.125 C-0.80607909 13.82618538 -0.80607909 13.82618538 -3 12.8125 C-3.66 12.544375 -4.32 12.27625 -5 12 C-6 11 -6 11 -6.25 8.625 C-6 6 -6 6 -4.625 4.1875 C-3 3 -3 3 -1 3 C-0.67 2.01 -0.34 1.02 0 0 Z " fill="#CACBCE" transform="translate(427,177)"/>
<path d="M0 0 C0.99 0.33 1.98 0.66 3 1 C3 1.66 3 2.32 3 3 C3.66 3 4.32 3 5 3 C6.7265625 4.75 6.7265625 4.75 8.625 7 C9.25664062 7.7425 9.88828125 8.485 10.5390625 9.25 C11.02117187 9.8275 11.50328125 10.405 12 11 C11.67 11.66 11.34 12.32 11 13 C6.36279281 9.72469104 2.31457218 6.69564393 -1 2 C-0.67 1.34 -0.34 0.68 0 0 Z " fill="#74737C" transform="translate(336,48)"/>
<path d="M0 0 C0.66 0 1.32 0 2 0 C2 0.99 2 1.98 2 3 C1.01 3.66 0.02 4.32 -1 5 C-0.67 5.66 -0.34 6.32 0 7 C-0.99 8.485 -0.99 8.485 -2 10 C-2.99 9.67 -3.98 9.34 -5 9 C-5 9.66 -5 10.32 -5 11 C-6.98 11.99 -6.98 11.99 -9 13 C-8.34 11.35 -7.68 9.7 -7 8 C-6.34 8 -5.68 8 -5 8 C-4.731875 7.4225 -4.46375 6.845 -4.1875 6.25 C-2.97070811 3.94449957 -1.69666121 1.97943808 0 0 Z " fill="#7D7D85" transform="translate(189,51)"/>
<path d="M0 0 C1.65 0 3.3 0 5 0 C4.67 0.99 4.34 1.98 4 3 C5.98 3 7.96 3 10 3 C9 5 9 5 6.6875 6.1875 C3.88010429 7.03624754 2.698065 6.99928333 0 6 C0.33 5.67 0.66 5.34 1 5 C0.34 4.67 -0.32 4.34 -1 4 C-0.67 2.68 -0.34 1.36 0 0 Z " fill="#4F4E59" transform="translate(301,370)"/>
<path d="M0 0 C0.66 0.33 1.32 0.66 2 1 C-2.85526316 7.20394737 -2.85526316 7.20394737 -7 9 C-8.70921589 10.5412312 -8.70921589 10.5412312 -10 12 C-10.66 11.67 -11.32 11.34 -12 11 C-10.88121617 9.82737096 -9.75476949 8.66204862 -8.625 7.5 C-7.68527344 6.52546875 -7.68527344 6.52546875 -6.7265625 5.53125 C-5 4 -5 4 -3 4 C-3 3.34 -3 2.68 -3 2 C-2.01 1.34 -1.02 0.68 0 0 Z " fill="#98979F" transform="translate(203,39)"/>
<path d="M0 0 C0 3 0 3 -2.3125 5.6875 C-5 8 -5 8 -8 8 C-7.42655063 5.13275314 -7.1385485 4.1385485 -5 2 C-3.35008418 1.29289322 -1.68437744 0.62056011 0 0 Z " fill="#66656E" transform="translate(454,367)"/>
<path d="M0 0 C3 0 3 0 6 1 C5.95875 1.763125 5.9175 2.52625 5.875 3.3125 C5.77919176 6.22718416 5.77919176 6.22718416 8 9 C4.20620942 7.50958227 2.31656242 5.30937488 0 2 C0 1.34 0 0.68 0 0 Z " fill="#88888E" transform="translate(48,345)"/>
<path d="M0 0 C1 2 2 4 3 6 C3.66 6 4.32 6 5 6 C4.6875 7.9375 4.6875 7.9375 4 10 C3.01 10.33 2.02 10.66 1 11 C-0.28317892 7.15046324 -0.06643637 4.05261865 0 0 Z " fill="#8B8B94" transform="translate(359,271)"/>
<path d="M0 0 C0.66 0.33 1.32 0.66 2 1 C1.38125 1.53625 0.7625 2.0725 0.125 2.625 C-2.20543253 4.91343409 -2.20543253 4.91343409 -3.0625 8.1875 C-3.5265625 9.5796875 -3.5265625 9.5796875 -4 11 C-4.99 11.33 -5.98 11.66 -7 12 C-6.25752466 7.17391028 -3.38978244 3.38978244 0 0 Z " fill="#939199" transform="translate(17,212)"/>
<path d="M0 0 C0.93423645 3.01031744 1.04449911 3.86650268 0 7 C-0.99 7 -1.98 7 -3 7 C-3 7.66 -3 8.32 -3 9 C-3.66 9 -4.32 9 -5 9 C-3.7508258 5.54074837 -2.32472205 2.85306797 0 0 Z " fill="#75757D" transform="translate(179,64)"/>
<path d="M0 0 C2.875 0.625 2.875 0.625 6 2 C7.375 5.125 7.375 5.125 8 8 C7.01 7.67 6.02 7.34 5 7 C5 6.34 5 5.68 5 5 C4.34 5 3.68 5 3 5 C3 4.34 3 3.68 3 3 C2.01 2.67 1.02 2.34 0 2 C0 1.34 0 0.68 0 0 Z " fill="#88868E" transform="translate(56,354)"/>
<path d="M0 0 C2.91227269 3.28804981 4.49701212 5.59885603 5 10 C3.35 9.67 1.7 9.34 0 9 C0 8.34 0 7.68 0 7 C0.66 7 1.32 7 2 7 C2 6.01 2 5.02 2 4 C1.34 4 0.68 4 0 4 C0 2.68 0 1.36 0 0 Z " fill="#8A8992" transform="translate(349,246)"/>
<path d="M0 0 C2.1875 0.3125 2.1875 0.3125 4 1 C2.515 3.475 2.515 3.475 1 6 C0.67 5.34 0.34 4.68 0 4 C-0.99 3.67 -1.98 3.34 -3 3 C-1.75 1.4375 -1.75 1.4375 0 0 Z " fill="#5D5C65" transform="translate(382,248)"/>
<path d="M0 0 C0.33 0.99 0.66 1.98 1 3 C0.01 3 -0.98 3 -2 3 C-2.33 3.99 -2.66 4.98 -3 6 C-3.99 6.495 -3.99 6.495 -5 7 C-6.13350534 9.01669827 -6.13350534 9.01669827 -7 11 C-7.37254569 7.64708882 -7.31050198 6.3961577 -5.1875 3.6875 C-3 2 -3 2 0 2 C0 1.34 0 0.68 0 0 Z " fill="#D9DADC" transform="translate(388,213)"/>
<path d="M0 0 C4.19469571 0.59924224 8.00999834 1.57499941 12 3 C8.70024471 4.09991843 6.45570193 4.35996895 3 4 C1.125 2 1.125 2 0 0 Z " fill="#94939B" transform="translate(292,23)"/>
<path d="M0 0 C3.0625 0.1875 3.0625 0.1875 5.0625 2.1875 C2.0625 4.1875 2.0625 4.1875 0 3.9375 C-1.9375 3.1875 -1.9375 3.1875 -3.9375 1.1875 C-2.9375 0.1875 -2.9375 0.1875 0 0 Z " fill="#575560" transform="translate(77.9375,367.8125)"/>
<path d="M0 0 C3.66881155 0.70554068 6.70450534 2.27735506 10 4 C8 5 8 5 5.8359375 4.44140625 C5.02382813 4.15136719 4.21171875 3.86132812 3.375 3.5625 C2.55773437 3.27503906 1.74046875 2.98757812 0.8984375 2.69140625 C0.27195312 2.46324219 -0.35453125 2.23507813 -1 2 C-0.67 1.34 -0.34 0.68 0 0 Z " fill="#9999A0" transform="translate(306,28)"/>
<path d="M0 0 C0.99 0 1.98 0 3 0 C2.35455571 3.48539917 0.89865603 6.02819057 -1 9 C-2.60031344 5.79937313 -1.03173691 3.27728194 0 0 Z " fill="#97979F" transform="translate(349,333)"/>
<path d="M0 0 C1.98 0 3.96 0 6 0 C4.35 1.65 2.7 3.3 1 5 C0.34 4.67 -0.32 4.34 -1 4 C-0.67 2.68 -0.34 1.36 0 0 Z " fill="#818087" transform="translate(323,362)"/>
<path d="M0 0 C1 3 1 3 1 5 C0.360625 5.12375 -0.27875 5.2475 -0.9375 5.375 C-1.9584375 5.684375 -1.9584375 5.684375 -3 6 C-3.33 6.66 -3.66 7.32 -4 8 C-3.40072174 4.64404172 -2.15377564 2.62198774 0 0 Z " fill="#83838B" transform="translate(378,252)"/>
<path d="M0 0 C1.9451 2.91765 2.45276317 4.62537285 3 8 C2.01 7.67 1.02 7.34 0 7 C-1.125 2.25 -1.125 2.25 0 0 Z " fill="#787781" transform="translate(364,88)"/>
<path d="M0 0 C4.875 4.625 4.875 4.625 6 8 C5.01 8.33 4.02 8.66 3 9 C2 6 1 3 0 0 Z " fill="#A5A4AB" transform="translate(348,61)"/>
<path d="M0 0 C0 0.99 0 1.98 0 3 C-4.455 4.485 -4.455 4.485 -9 6 C-3.2 0 -3.2 0 0 0 Z " fill="#AAAAAE" transform="translate(214,33)"/>
</svg>
