<?xml version="1.0" encoding="UTF-8"?>
<svg version="1.1" xmlns="http://www.w3.org/2000/svg" width="695" height="695">
<path d="M0 0 C1.64874367 -0.00855011 1.64874367 -0.00855011 3.33079529 -0.01727295 C5.65110328 -0.0266667 7.97142428 -0.03323436 10.29174805 -0.03710938 C13.74748847 -0.04670532 17.20260451 -0.07773802 20.65820312 -0.109375 C40.70224182 -0.20487816 60.57915236 1.47295162 80.24609375 5.453125 C81.82318115 5.76564209 81.82318115 5.76564209 83.43212891 6.08447266 C115.20943994 12.58705641 145.54989898 23.2273141 174.31445312 38.20703125 C176.25500412 39.20771983 178.20935321 40.17584702 180.16796875 41.140625 C215.0407052 58.6023 248.85225014 85.55458096 274.24609375 115.203125 C275.22219844 116.29584547 276.20020892 117.38686526 277.1796875 118.4765625 C328.42725732 175.89260412 362.12703136 255.55609167 362.44921875 332.95703125 C362.45491882 334.0561937 362.4606189 335.15535614 362.4664917 336.28782654 C362.47588545 338.60813453 362.48245311 340.92845553 362.48632812 343.2487793 C362.49592407 346.70451972 362.52695677 350.15963576 362.55859375 353.61523438 C362.65409691 373.65927307 360.97626713 393.53618361 356.99609375 413.203125 C356.78774902 414.2545166 356.5794043 415.3059082 356.36474609 416.38916016 C349.86216234 448.16647119 339.22190465 478.50693023 324.2421875 507.27148438 C323.24149892 509.21203537 322.27337173 511.16638446 321.30859375 513.125 C303.84691875 547.99773645 276.89463779 581.80928139 247.24609375 607.203125 C246.15337328 608.17922969 245.06235349 609.15724017 243.97265625 610.13671875 C186.55661463 661.38428857 106.89312708 695.08406261 29.4921875 695.40625 C28.39302505 695.41195007 27.29386261 695.41765015 26.16139221 695.42352295 C23.84108422 695.4329167 21.52076322 695.43948436 19.20043945 695.44335938 C15.74469903 695.45295532 12.28958299 695.48398802 8.83398438 695.515625 C-11.21005432 695.61112816 -31.08696486 693.93329838 -50.75390625 689.953125 C-51.80529785 689.74478027 -52.85668945 689.53643555 -53.93994141 689.32177734 C-85.71725244 682.81919359 -116.05771148 672.1789359 -144.82226562 657.19921875 C-146.76281662 656.19853017 -148.71716571 655.23040298 -150.67578125 654.265625 C-185.5485177 636.80395 -219.36006264 609.85166904 -244.75390625 580.203125 C-245.73001094 579.11040453 -246.70802142 578.01938474 -247.6875 576.9296875 C-298.93506982 519.51364588 -332.63484386 439.85015833 -332.95703125 362.44921875 C-332.96558136 360.80047508 -332.96558136 360.80047508 -332.9743042 359.11842346 C-332.98369795 356.79811547 -332.99026561 354.47779447 -332.99414062 352.1574707 C-333.00373657 348.70173028 -333.03476927 345.24661424 -333.06640625 341.79101562 C-333.16190941 321.74697693 -331.48407963 301.87006639 -327.50390625 282.203125 C-327.19138916 280.6260376 -327.19138916 280.6260376 -326.87255859 279.01708984 C-320.36997484 247.23977881 -309.72971715 216.89931977 -294.75 188.13476562 C-293.74931142 186.19421463 -292.78118423 184.23986554 -291.81640625 182.28125 C-274.35473125 147.40851355 -247.40245029 113.59696861 -217.75390625 88.203125 C-216.66118578 87.22702031 -215.57016599 86.24900983 -214.48046875 85.26953125 C-157.06442713 34.02196143 -77.40093958 0.32218739 0 0 Z " fill="#0D0C1D" transform="translate(332.75390625,-0.203125)"/>
<path d="M0 0 C1.64874367 -0.00855011 1.64874367 -0.00855011 3.33079529 -0.01727295 C5.65110328 -0.0266667 7.97142428 -0.03323436 10.29174805 -0.03710938 C13.74748847 -0.04670532 17.20260451 -0.07773802 20.65820312 -0.109375 C40.70224182 -0.20487816 60.57915236 1.47295162 80.24609375 5.453125 C81.82318115 5.76564209 81.82318115 5.76564209 83.43212891 6.08447266 C115.20943994 12.58705641 145.54989898 23.2273141 174.31445312 38.20703125 C176.25500412 39.20771983 178.20935321 40.17584702 180.16796875 41.140625 C215.0407052 58.6023 248.85225014 85.55458096 274.24609375 115.203125 C275.22219844 116.29584547 276.20020892 117.38686526 277.1796875 118.4765625 C328.42725732 175.89260412 362.12703136 255.55609167 362.44921875 332.95703125 C362.45491882 334.0561937 362.4606189 335.15535614 362.4664917 336.28782654 C362.47588545 338.60813453 362.48245311 340.92845553 362.48632812 343.2487793 C362.49592407 346.70451972 362.52695677 350.15963576 362.55859375 353.61523438 C362.65409691 373.65927307 360.97626713 393.53618361 356.99609375 413.203125 C356.78774902 414.2545166 356.5794043 415.3059082 356.36474609 416.38916016 C349.86216234 448.16647119 339.22190465 478.50693023 324.2421875 507.27148438 C323.24149892 509.21203537 322.27337173 511.16638446 321.30859375 513.125 C303.84691875 547.99773645 276.89463779 581.80928139 247.24609375 607.203125 C246.15337328 608.17922969 245.06235349 609.15724017 243.97265625 610.13671875 C186.55661463 661.38428857 106.89312708 695.08406261 29.4921875 695.40625 C28.39302505 695.41195007 27.29386261 695.41765015 26.16139221 695.42352295 C23.84108422 695.4329167 21.52076322 695.43948436 19.20043945 695.44335938 C15.74469903 695.45295532 12.28958299 695.48398802 8.83398438 695.515625 C-11.21005432 695.61112816 -31.08696486 693.93329838 -50.75390625 689.953125 C-51.80529785 689.74478027 -52.85668945 689.53643555 -53.93994141 689.32177734 C-85.71725244 682.81919359 -116.05771148 672.1789359 -144.82226562 657.19921875 C-146.76281662 656.19853017 -148.71716571 655.23040298 -150.67578125 654.265625 C-185.5485177 636.80395 -219.36006264 609.85166904 -244.75390625 580.203125 C-245.73001094 579.11040453 -246.70802142 578.01938474 -247.6875 576.9296875 C-298.93506982 519.51364588 -332.63484386 439.85015833 -332.95703125 362.44921875 C-332.96558136 360.80047508 -332.96558136 360.80047508 -332.9743042 359.11842346 C-332.98369795 356.79811547 -332.99026561 354.47779447 -332.99414062 352.1574707 C-333.00373657 348.70173028 -333.03476927 345.24661424 -333.06640625 341.79101562 C-333.16190941 321.74697693 -331.48407963 301.87006639 -327.50390625 282.203125 C-327.19138916 280.6260376 -327.19138916 280.6260376 -326.87255859 279.01708984 C-320.36997484 247.23977881 -309.72971715 216.89931977 -294.75 188.13476562 C-293.74931142 186.19421463 -292.78118423 184.23986554 -291.81640625 182.28125 C-274.35473125 147.40851355 -247.40245029 113.59696861 -217.75390625 88.203125 C-216.66118578 87.22702031 -215.57016599 86.24900983 -214.48046875 85.26953125 C-157.06442713 34.02196143 -77.40093958 0.32218739 0 0 Z M-64.75390625 69.203125 C-65.58019531 69.97527344 -66.40648437 70.74742188 -67.2578125 71.54296875 C-87.81811285 91.39540274 -102.10265149 118.29850104 -109.50390625 145.765625 C-109.70266357 146.49628174 -109.9014209 147.22693848 -110.10620117 147.97973633 C-113.62692011 161.74721119 -114.19203751 175.38774738 -114.19140625 189.515625 C-114.19313843 190.43877502 -114.19487061 191.36192505 -114.19665527 192.31304932 C-114.17727134 215.88340732 -109.78087427 236.91123934 -100.50390625 258.640625 C-100.15972656 259.47916016 -99.81554687 260.31769531 -99.4609375 261.18164062 C-97.23835033 266.40590691 -94.60181931 271.2345884 -91.59082031 276.04321289 C-91.22103058 276.63870186 -90.85124084 277.23419083 -90.47024536 277.84772491 C-89.56726183 279.30105804 -88.66092972 280.75230976 -87.75390625 282.203125 C-88.84812393 282.21121185 -89.94234161 282.21929871 -91.06971741 282.22763062 C-101.44002508 282.30550464 -111.81020818 282.39334371 -122.18035221 282.49065208 C-127.51026428 282.54035287 -132.84015899 282.58668271 -138.17016602 282.625 C-143.32499628 282.66218713 -148.47967134 282.70863217 -153.63436699 282.76118851 C-155.58965742 282.77955661 -157.54498089 282.79472754 -159.50032234 282.80646896 C-174.70802756 282.90095799 -189.21379608 283.42262913 -203.69140625 288.578125 C-204.55830078 288.86945313 -205.42519531 289.16078125 -206.31835938 289.4609375 C-210.36837661 290.85475475 -214.08158357 292.33951602 -217.8046875 294.4609375 C-222.3430175 296.79435352 -226.05419646 296.36851289 -231.00390625 295.703125 C-231.92067139 295.6014502 -232.83743652 295.49977539 -233.78198242 295.39501953 C-237.10909434 295.02137948 -240.43091722 294.61179459 -243.75390625 294.203125 C-249.07128942 293.56982396 -254.39108776 292.95814032 -259.71154785 292.35131836 C-262.00007793 292.08581992 -264.28659468 291.80658191 -266.57324219 291.52539062 C-274.05244143 290.63204711 -281.46787748 290.01614372 -289.00390625 289.94921875 C-289.6987764 289.93796967 -290.39364655 289.92672058 -291.10957336 289.91513062 C-299.88454367 289.9523688 -306.63321569 294.13679412 -312.75390625 300.203125 C-318.4879996 308.58209536 -321.65420478 316.97881941 -319.75390625 327.203125 C-317.49593204 334.70177501 -314.23698048 341.41664073 -310.37890625 348.203125 C-304.77964116 358.24254629 -299.45829669 368.40475443 -294.21142578 378.63085938 C-293.36040283 380.28504883 -293.36040283 380.28504883 -292.4921875 381.97265625 C-291.98727783 382.95854736 -291.48236816 383.94443848 -290.9621582 384.96020508 C-289.94236654 387.11038931 -289.94236654 387.11038931 -288.75390625 388.203125 C-288.70253568 390.44212061 -288.71878894 392.68270164 -288.76171875 394.921875 C-288.78211547 396.33527199 -288.80144268 397.74868474 -288.81982422 399.16210938 C-288.83027771 399.90420654 -288.8407312 400.64630371 -288.85150146 401.41088867 C-289.27658467 436.96640036 -278.93636931 467.26777341 -254.06225586 493.29174805 C-237.5066334 510.17333816 -217.93255659 521.80477134 -194.75390625 527.203125 C-193.72819865 527.46535386 -192.70249105 527.72758272 -191.64570141 527.99775791 C-179.93544437 530.71811513 -168.40229528 530.63390725 -156.42895508 530.60717773 C-154.10453973 530.61289032 -151.78012719 530.619858 -149.45571899 530.62797546 C-143.18063022 530.64582669 -136.9056819 530.64475327 -130.63057542 530.63903308 C-124.70528344 530.63553452 -118.78001237 530.64352294 -112.85472497 530.65039373 C-100.3980628 530.6640791 -87.94146367 530.65870982 -75.48480298 530.64720852 C-64.13428485 530.63728738 -52.78392999 530.65020445 -41.43343703 530.67414271 C-29.73044027 530.69863506 -18.02751923 530.70811641 -6.3244974 530.70148998 C0.22643501 530.69813623 6.7772327 530.70042928 13.32814598 530.71774101 C19.49500279 530.73332819 25.66155072 530.72912512 31.82839584 530.71043587 C34.07597486 530.70678192 36.32357738 530.70976363 38.57113457 530.72032166 C71.31084585 530.86222977 100.88990137 522.42169603 126.24609375 501.203125 C127.01566406 500.5740625 127.78523438 499.945 128.578125 499.296875 C133.29822111 495.32585724 137.35504793 490.98189342 141.24609375 486.203125 C142.26123047 484.9965625 142.26123047 484.9965625 143.296875 483.765625 C150.77242353 474.41786983 155.92207244 463.87215784 161.24609375 453.203125 C161.48118652 453.904375 161.7162793 454.605625 161.95849609 455.328125 C164.06228326 461.38538605 166.40362172 466.81319689 169.87109375 472.203125 C170.29841797 472.88608643 170.72574219 473.56904785 171.16601562 474.27270508 C173.99121328 478.65433919 177.05030402 482.22161636 180.74609375 485.890625 C185.4626738 490.76833046 186.2063692 494.42387058 186.78125 501.0546875 C187.84316932 508.24718307 192.49590601 514.55415816 198.27453613 518.85534668 C206.8434737 524.71316599 215.26711812 524.79623737 225.33984375 524.734375 C226.89725994 524.73707523 228.45467448 524.74096205 230.01208496 524.74597168 C233.2632668 524.75184186 236.51400661 524.74338477 239.76513672 524.72460938 C243.91093896 524.70182074 248.05570509 524.71495729 252.20146942 524.73889923 C255.4136318 524.75342496 258.62555271 524.74872046 261.83772278 524.73838806 C263.36538316 524.73573942 264.89306621 524.7389242 266.42070007 524.74830627 C274.74604606 524.78822897 281.95330691 524.62888673 289.24609375 520.203125 C289.89670776 519.82490601 290.54732178 519.44668701 291.21765137 519.05700684 C298.15997903 514.84380364 302.02004402 507.8193941 304.24609375 500.203125 C304.55186015 497.37089236 304.55186015 497.37089236 304.52697754 494.43722534 C304.53839783 493.31040848 304.54981812 492.18359161 304.56158447 491.02262878 C304.56382019 489.80070328 304.56605591 488.57877777 304.56835938 487.31982422 C304.57828918 486.02149155 304.58821899 484.72315887 304.59844971 483.38548279 C304.6245951 479.83349465 304.63756801 476.28158194 304.64647102 472.72951269 C304.6523507 470.50518261 304.66056379 468.28087273 304.66947937 466.05655289 C304.69680574 459.08227799 304.71614905 452.10804975 304.72388315 445.13372505 C304.73283145 437.11075619 304.76787529 429.08847105 304.82588434 421.06570995 C304.86927641 414.84633072 304.88930016 408.6271427 304.89196539 402.40761387 C304.89405078 398.70145567 304.905632 394.99594112 304.94160461 391.2899437 C304.98103663 387.14714615 304.97192671 383.00575831 304.95898438 378.86279297 C304.97741394 377.65301285 304.99584351 376.44323273 305.01483154 375.1967926 C304.91105452 364.54045948 301.56729666 356.17335097 293.93359375 348.640625 C285.42873817 341.10775292 274.62757002 341.72849894 263.96875 341.734375 C262.39130895 341.72725961 260.81387044 341.71955864 259.23643494 341.71130371 C255.94246206 341.69791501 252.64872866 341.69626504 249.35473633 341.70214844 C245.15736442 341.70804434 240.96114927 341.67743242 236.76400089 341.63703156 C233.5097802 341.61104177 230.25583412 341.60828717 227.00152397 341.61192322 C225.45512418 341.610243 223.90871018 341.60070759 222.36241341 341.58277893 C213.25321835 341.48875511 206.02984821 342.076444 198.24609375 347.203125 C196.88484375 348.0384375 196.88484375 348.0384375 195.49609375 348.890625 C190.90913581 353.60499844 187.34526596 359.12272172 186.43359375 365.703125 C185.52421144 370.99238945 182.2864213 373.81453548 178.64453125 377.5625 C174.88140148 381.70562007 172.08629632 386.39943834 169.24609375 391.203125 C169.08753906 390.22214844 168.92898438 389.24117188 168.765625 388.23046875 C164.30008803 361.86567484 152.95759055 340.89763073 135.53125 320.8828125 C133.24609375 318.203125 133.24609375 318.203125 131.24609375 315.203125 C131.67317627 314.79698975 132.10025879 314.39085449 132.5402832 313.97241211 C144.82015007 302.21333948 154.80338934 290.20116264 163.55859375 275.640625 C163.94321777 275.00519775 164.3278418 274.36977051 164.72412109 273.71508789 C166.61503271 270.46149997 168.15592607 267.49210712 169.28369141 263.87768555 C171.94601745 255.86865581 174.47770667 252.12831208 181.91796875 248.29296875 C184.91134488 246.82945591 187.94514867 245.47894466 190.99609375 244.140625 C192.52410134 243.43195793 194.0501665 242.71908697 195.57421875 242.00195312 C198.49047211 240.63692107 201.41435449 239.29193527 204.34960938 237.96826172 C217.46114369 232.22407208 217.46114369 232.22407208 226.93359375 221.828125 C227.51496094 220.91289062 228.09632813 219.99765625 228.6953125 219.0546875 C232.85604079 211.40397805 233.38252145 203.80899316 231.6640625 195.33203125 C227.19670786 180.95082112 215.25095977 174.21215073 202.93359375 167.265625 C200.75045383 166.01222029 198.57025632 164.75384075 196.39082336 163.4940033 C195.04581128 162.71888151 193.69811465 161.94839286 192.34733582 161.18336487 C183.69547215 156.2596924 183.69547215 156.2596924 182.3840332 153.17626953 C182.210896 152.40395996 182.03775879 151.63165039 181.859375 150.8359375 C181.64812988 149.96066406 181.43688477 149.08539063 181.21923828 148.18359375 C180.89221924 146.77013672 180.89221924 146.77013672 180.55859375 145.328125 C173.49064997 117.33370544 159.21351868 92.89296038 139.24609375 72.203125 C138.46878906 71.36265625 137.69148438 70.5221875 136.890625 69.65625 C120.23189064 52.13248924 97.47731556 38.8628531 74.24609375 32.203125 C73.53533691 31.99719727 72.82458008 31.79126953 72.09228516 31.57910156 C59.98872777 28.27457199 47.89920248 27.81549734 35.43359375 27.765625 C34.70055023 27.75936096 33.96750671 27.75309692 33.21224976 27.74664307 C-4.47931199 27.542999 -37.60928687 43.81516819 -64.75390625 69.203125 Z " fill="#FEFEFE" transform="translate(332.75390625,-0.203125)"/>
<path d="M0 0 C2.92390596 1.08118709 5.30062804 2.40037217 8 4 C8 4.66 8 5.32 8 6 C9.19625 6.103125 10.3925 6.20625 11.625 6.3125 C15.57894038 6.81024781 18.57683059 7.88089513 22 10 C24.43642676 13.65464013 24.07959834 15.70168967 24 20 C24.33 20.33 24.66 20.66 25 21 C25.44140572 24.89908384 25.66589649 27.12006535 23.25 30.3125 C19.16295821 32.43461785 15.38788755 32.89972006 10.83984375 33.41015625 C7.7545697 34.05097658 6.42065215 35.06247177 4 37 C1.00902188 38.04714325 -1.78279728 38.13472173 -4.9375 38.125 C-5.77152344 38.12757813 -6.60554687 38.13015625 -7.46484375 38.1328125 C-10 38 -10 38 -12.3515625 37.4765625 C-15.77213809 36.8610607 -18.96860298 37.09629258 -22.4375 37.25 C-30.53808722 37.4260572 -30.53808722 37.4260572 -33.875 34.75 C-36.77831325 30.99277108 -36.77831325 30.99277108 -37 28 C-37.7425 27.9175 -38.485 27.835 -39.25 27.75 C-42.6751021 26.81588125 -43.94355125 25.8942612 -46 23 C-46.5625 19.5 -46.5625 19.5 -46 16 C-43.72942661 13.60328365 -42.13423187 12.23351833 -38.875 11.5625 C-36.01959572 10.70587872 -35.48745811 8.49892963 -34 6 C-29.89482672 2.85320357 -26.53085722 2.5942965 -21.4375 2.4375 C-13.71845589 2.18504365 -7.85547137 -1.00831424 0 0 Z " fill="#9B9BA2" transform="translate(577,288)"/>
<path d="M0 0 C1.15628906 -0.02126953 1.15628906 -0.02126953 2.3359375 -0.04296875 C4.8827759 0.21345355 6.46451509 0.83124846 8.625 2.1875 C9.12 3.1775 9.12 3.1775 9.625 4.1875 C10.73875 4.496875 11.8525 4.80625 13 5.125 C17.7242637 6.50969798 17.7242637 6.50969798 19.625 9.1875 C20.2421875 12.4375 20.2421875 12.4375 20.5 16.1875 C20.65082031 18.04375 20.65082031 18.04375 20.8046875 19.9375 C20.625 23.1875 20.625 23.1875 19.2578125 25.0625 C15.68593517 27.52350639 12.91424346 27.26693043 8.625 27.1875 C8.625 27.8475 8.625 28.5075 8.625 29.1875 C3.91130985 31.91251736 -0.55918601 31.51803193 -5.875 31.5 C-6.82503906 31.51611328 -7.77507813 31.53222656 -8.75390625 31.54882812 C-9.67042969 31.54947266 -10.58695313 31.55011719 -11.53125 31.55078125 C-12.36462891 31.55376221 -13.19800781 31.55674316 -14.05664062 31.55981445 C-16.91201377 31.10125885 -18.29095619 30.16622053 -20.375 28.1875 C-20.519375 27.341875 -20.66375 26.49625 -20.8125 25.625 C-21.0909375 24.4184375 -21.0909375 24.4184375 -21.375 23.1875 C-23.79883077 22.01796584 -23.79883077 22.01796584 -26.375 21.1875 C-28.375 18.1875 -28.375 18.1875 -28.25 15.1875 C-27.375 12.1875 -27.375 12.1875 -25.4375 10.3125 C-23.375 9.1875 -23.375 9.1875 -21.375 9.1875 C-21.2925 8.589375 -21.21 7.99125 -21.125 7.375 C-20.13662627 4.49224329 -18.95016402 3.77596028 -16.375 2.1875 C-13.8671875 1.7109375 -13.8671875 1.7109375 -11.25 1.5625 C-7.25542145 1.31357968 -3.98443025 0.03309327 0 0 Z " fill="#9B9BA2" transform="translate(614.375,241.8125)"/>
<path d="M0 0 C1.5703125 1.44921875 1.5703125 1.44921875 3 3 C4.99172182 3.69100553 6.99161804 4.35902703 9 5 C11.89204907 7.89204907 11.77677821 10.61266811 12.0859375 14.5859375 C12 17 12 17 10.5 19.5 C7.42978014 21.34213192 4.4704879 22.16451217 1 23 C0.34 23.33 -0.32 23.66 -1 24 C-3.82590981 24.15071519 -6.61072462 24.23132601 -9.4375 24.25 C-10.21416016 24.270625 -10.99082031 24.29125 -11.79101562 24.3125 C-17.53871643 24.35210517 -17.53871643 24.35210517 -19.74633789 22.66699219 C-21 21 -21 21 -21 18 C-21.804375 17.79375 -22.60875 17.5875 -23.4375 17.375 C-26 16 -26 16 -27 13.0625 C-27 10 -27 10 -25.75 8.125 C-24 7 -24 7 -21 7 C-20.8453125 6.071875 -20.8453125 6.071875 -20.6875 5.125 C-20 3 -20 3 -17 1 C-11.57727152 0.06504681 -5.47110316 -0.90645496 0 0 Z " fill="#9C9CA2" transform="translate(599,190)"/>
<path d="M0 0 C0.33 0 0.66 0 1 0 C1 22.11 1 44.22 1 67 C-1.66390777 64.33609223 -2.8762256 62.65377523 -4.5 59.375 C-4.9021875 58.57835937 -5.304375 57.78171875 -5.71875 56.9609375 C-9.09838054 49.15069375 -10.48167292 42.60226004 -10.375 34.0625 C-10.38660156 33.13759766 -10.39820313 32.21269531 -10.41015625 31.25976562 C-10.37187957 22.15629542 -8.06176093 14.50595636 -3.875 6.4375 C-3.35679687 5.42558594 -2.83859375 4.41367187 -2.3046875 3.37109375 C-1 1 -1 1 0 0 Z " fill="#FAFAFA" transform="translate(518,397)"/>
</svg>
