<?xml version="1.0" encoding="UTF-8"?>
<svg version="1.1" xmlns="http://www.w3.org/2000/svg" width="1035" height="310">
<path d="M0 0 C341.55 0 683.1 0 1035 0 C1035 102.3 1035 204.6 1035 310 C693.45 310 351.9 310 0 310 C0 207.7 0 105.4 0 0 Z " fill="#2B2019" transform="translate(0,0)"/>
<path d="M0 0 C3.40428027 2.06665804 6.74921036 4.36111499 8.47265625 8.0234375 C9.11449591 12.43608518 9.02425489 14.27715699 6.34765625 17.8984375 C3.12030205 20.28387321 1.4733134 21.0234375 -2.52734375 21.0234375 C-8.13910846 18.79990809 -8.13910846 18.79990809 -9.52734375 16.0234375 C-9.94039978 12.96682288 -10.03612784 10.07072947 -9.52734375 7.0234375 C-7.02734375 4.4609375 -7.02734375 4.4609375 -4.52734375 3.0234375 C-9.31707585 2.78915437 -9.31707585 2.78915437 -13.52734375 5.0234375 C-14.64135607 8.0261793 -14.71431283 11.0461062 -14.84375 14.2265625 C-14.88564453 15.20625 -14.92753906 16.1859375 -14.97070312 17.1953125 C-15.01001953 18.21109375 -15.04933594 19.226875 -15.08984375 20.2734375 C-15.15461914 21.8203125 -15.15461914 21.8203125 -15.22070312 23.3984375 C-15.32659962 25.93995338 -15.42745856 28.48167827 -15.52734375 31.0234375 C-11.23734375 31.0234375 -6.94734375 31.0234375 -2.52734375 31.0234375 C-2.52734375 32.0134375 -2.52734375 33.0034375 -2.52734375 34.0234375 C-6.81734375 34.0234375 -11.10734375 34.0234375 -15.52734375 34.0234375 C-15.43382976 41.07119954 -15.32773938 48.11861723 -15.20996094 55.16601562 C-15.1716647 57.56374924 -15.13681299 59.96154043 -15.10546875 62.359375 C-15.0598327 65.80489692 -15.00183505 69.25002222 -14.94140625 72.6953125 C-14.92985504 73.76835632 -14.91830383 74.84140015 -14.90640259 75.94696045 C-14.8865329 76.94769592 -14.86666321 77.9484314 -14.84619141 78.97949219 C-14.83286774 79.85885437 -14.81954407 80.73821655 -14.80581665 81.64422607 C-14.50492417 84.2149855 -13.92262434 85.85104972 -12.52734375 88.0234375 C-10.35525787 88.93503843 -10.35525787 88.93503843 -7.90234375 89.2734375 C-7.08507812 89.42296875 -6.2678125 89.5725 -5.42578125 89.7265625 C-4.79929687 89.82453125 -4.1728125 89.9225 -3.52734375 90.0234375 C-3.52734375 91.0134375 -3.52734375 92.0034375 -3.52734375 93.0234375 C-15.73734375 93.0234375 -27.94734375 93.0234375 -40.52734375 93.0234375 C-40.52734375 92.0334375 -40.52734375 91.0434375 -40.52734375 90.0234375 C-37.55734375 89.0334375 -37.55734375 89.0334375 -34.52734375 88.0234375 C-34.19734375 70.2034375 -33.86734375 52.3834375 -33.52734375 34.0234375 C-40.45734375 34.0234375 -47.38734375 34.0234375 -54.52734375 34.0234375 C-54.4339243 41.37433335 -54.32785568 48.72489532 -54.20996094 56.07543945 C-54.17163256 58.57701591 -54.13678657 61.07864822 -54.10546875 63.58032227 C-54.05990229 67.17224107 -54.00189351 70.76377412 -53.94140625 74.35546875 C-53.92985504 75.47742142 -53.91830383 76.59937408 -53.90640259 77.75532532 C-53.8865329 78.79617783 -53.86666321 79.83703033 -53.84619141 80.90942383 C-53.83286774 81.82653641 -53.81954407 82.74364899 -53.80581665 83.68855286 C-53.67356801 86.29404889 -53.67356801 86.29404889 -51.52734375 89.0234375 C-48.96451633 89.75309116 -48.96451633 89.75309116 -46.52734375 90.0234375 C-46.52734375 91.0134375 -46.52734375 92.0034375 -46.52734375 93.0234375 C-57.74734375 93.0234375 -68.96734375 93.0234375 -80.52734375 93.0234375 C-80.52734375 92.0334375 -80.52734375 91.0434375 -80.52734375 90.0234375 C-79.55796875 89.7346875 -78.58859375 89.4459375 -77.58984375 89.1484375 C-74.42070172 88.38129068 -74.42070172 88.38129068 -73.52734375 86.0234375 C-73.40846419 84.35944467 -73.35022431 82.69094475 -73.32202148 81.02294922 C-73.30207626 79.98202118 -73.28213104 78.94109314 -73.26158142 77.86862183 C-73.23651268 76.1779509 -73.23651268 76.1779509 -73.2109375 74.453125 C-73.1901564 73.30176056 -73.16937531 72.15039612 -73.14796448 70.96414185 C-73.0824271 67.2756361 -73.02356447 63.58705747 -72.96484375 59.8984375 C-72.92166252 57.40233612 -72.87804837 54.9062422 -72.83398438 52.41015625 C-72.72674144 46.28132769 -72.62498286 40.15242617 -72.52734375 34.0234375 C-75.49734375 34.0234375 -78.46734375 34.0234375 -81.52734375 34.0234375 C-81.52734375 33.0334375 -81.52734375 32.0434375 -81.52734375 31.0234375 C-78.22734375 31.0234375 -74.92734375 31.0234375 -71.52734375 31.0234375 C-71.65109375 28.7959375 -71.65109375 28.7959375 -71.77734375 26.5234375 C-71.75082607 20.26526439 -70.16464066 15.96786266 -65.984375 11.30078125 C-58.56915627 4.39461644 -51.05129597 3.42805426 -41.18359375 3.5859375 C-36.13467236 4.19008194 -32.5429419 5.97637115 -28.52734375 9.0234375 C-28.27855469 8.41886719 -28.02976562 7.81429687 -27.7734375 7.19140625 C-26.3293692 4.67899902 -25.06598562 3.79764508 -22.58984375 2.3359375 C-21.90019531 1.91957031 -21.21054687 1.50320312 -20.5 1.07421875 C-14.53834767 -2.10139408 -6.28353955 -2.42795191 0 0 Z " fill="#EDE9E0" transform="translate(757.52734375,57.9765625)"/>
<path d="M0 0 C9.34335779 10.23320139 9.38675522 22.15591625 8.86035156 35.26513672 C8.38857502 40.49676666 6.52432269 44.57250657 3.625 48.875 C3.068125 49.82375 2.51125 50.7725 1.9375 51.75 C-5.49135217 58.57651281 -14.407298 60.26048194 -24.17578125 60.15234375 C-31.65970511 59.50355426 -38.45184706 56.76345708 -43.94140625 51.58984375 C-50.07705858 44.25046671 -50.60520497 36.43412572 -50.6875 27.25 C-50.71650391 26.19425781 -50.74550781 25.13851562 -50.77539062 24.05078125 C-50.85146678 14.60563344 -48.51288411 7.4093986 -42.0859375 0.37890625 C-30.29152411 -9.98832926 -12.44509021 -7.83579754 0 0 Z " fill="#EEE9E1" transform="translate(297.375,93.125)"/>
<path d="M0 0 C9.34335779 10.23320139 9.38675522 22.15591625 8.86035156 35.26513672 C8.38857502 40.49676666 6.52432269 44.57250657 3.625 48.875 C3.068125 49.82375 2.51125 50.7725 1.9375 51.75 C-5.49135217 58.57651281 -14.407298 60.26048194 -24.17578125 60.15234375 C-31.65739381 59.50375463 -38.45884293 56.76610524 -43.94140625 51.5859375 C-50.21416332 44.09964977 -50.59904699 36.04582887 -50.6875 26.6875 C-50.71650391 25.68396484 -50.74550781 24.68042969 -50.77539062 23.64648438 C-50.85362929 14.39626704 -48.3708424 7.25401796 -42.0859375 0.37890625 C-30.29152411 -9.98832926 -12.44509021 -7.83579754 0 0 Z " fill="#EEEAE1" transform="translate(661.375,93.125)"/>
<path d="M0 0 C18.33517649 -2.05018184 18.33517649 -2.05018184 23.99267578 1.11474609 C27.31760703 4.01699137 29.66589691 7.57486076 31.953125 11.32080078 C33.40424508 13.64841364 35.1197116 15.70831206 36.875 17.8125 C37.50664062 18.60914062 38.13828125 19.40578125 38.7890625 20.2265625 C42.07119301 24.34372268 45.40117199 28.42175548 48.72998047 32.5012207 C54.53492935 39.6286643 60.2628385 46.81798893 66 54 C66.1269082 47.68307984 66.21439585 41.36648906 66.2746582 35.04858398 C66.29978285 32.90002151 66.33388861 30.75154435 66.37719727 28.60327148 C66.43793792 25.51264388 66.46623044 22.42314737 66.48828125 19.33203125 C66.51408768 18.37351761 66.5398941 17.41500397 66.56648254 16.42744446 C66.56842832 11.78755534 66.52969305 9.69620723 63.64526367 5.9050293 C60.96424021 3.97424701 59.26349229 3.27972791 56 3 C56 2.01 56 1.02 56 0 C63.92 0 71.84 0 80 0 C80 0.99 80 1.98 80 3 C78.865625 3.45375 77.73125 3.9075 76.5625 4.375 C72.95278308 5.57095806 72.95278308 5.57095806 72 8 C71.87796382 10.44022934 71.81439143 12.85386176 71.79467773 15.29541016 C71.78477814 16.04672714 71.77487854 16.79804413 71.76467896 17.5721283 C71.73303477 20.06107406 71.70829505 22.55003893 71.68359375 25.0390625 C71.66302674 26.76256818 71.64203033 28.48606879 71.62062073 30.20956421 C71.56537393 34.7502024 71.51597617 39.2908863 71.46777344 43.831604 C71.41757744 48.46329832 71.36188146 53.09492609 71.30664062 57.7265625 C71.19902716 66.81765151 71.09758928 75.90879825 71 85 C63.23690796 85.16333008 63.23690796 85.16333008 61.10473633 83.69335938 C60.68474365 83.08298828 60.26475098 82.47261719 59.83203125 81.84375 C59.33832031 81.15925781 58.84460938 80.47476563 58.3359375 79.76953125 C57.83320313 79.02058594 57.33046875 78.27164063 56.8125 77.5 C55.68616493 75.92524114 54.55719106 74.3523668 53.42578125 72.78125 C52.85811035 71.97945313 52.29043945 71.17765625 51.70556641 70.3515625 C49.11503852 66.77985271 46.31643865 63.39438823 43.5 60 C38.46362357 53.87180042 33.5971903 47.6324913 28.83984375 41.28515625 C24.10659075 35.01171775 19.05960948 29.01044654 14 23 C13.87319746 30.45627684 13.78564707 37.91227555 13.7253418 45.36938477 C13.70020161 47.9059488 13.66608463 50.44244042 13.62280273 52.97875977 C13.56213339 56.62534451 13.53378426 60.27097132 13.51171875 63.91796875 C13.48591232 65.05147263 13.4601059 66.1849765 13.43351746 67.35282898 C13.3751054 73.7240585 13.3751054 73.7240585 16.35473633 79.2043457 C19.02337094 81.01586463 20.80742389 81.72635062 24 82 C24 82.99 24 83.98 24 85 C16.08 85 8.16 85 0 85 C0 84.01 0 83.02 0 82 C0.94875 81.7525 1.8975 81.505 2.875 81.25 C5.98943244 80.33115458 5.98943244 80.33115458 7.17913818 78.34315491 C8.2688555 75.23255038 8.25444559 72.55658778 8.25878906 69.25952148 C8.2622937 68.59075989 8.26579834 67.92199829 8.26940918 67.23297119 C8.27819076 65.02890555 8.27239082 62.82516248 8.265625 60.62109375 C8.26697252 59.0869999 8.26891378 57.55290647 8.27142334 56.01881409 C8.27436962 52.8068535 8.27009237 49.59500427 8.26074219 46.38305664 C8.24933826 42.26481245 8.2559161 38.14682869 8.26788712 34.02859402 C8.27511094 30.86218805 8.27281556 27.69584393 8.26763153 24.52943611 C8.26629698 23.01077303 8.26793597 21.49210434 8.27259064 19.9734478 C8.27766557 17.85250826 8.26993286 15.73199197 8.25878906 13.61108398 C8.25719788 12.40403305 8.25560669 11.19698212 8.25396729 9.95335388 C8.22256007 6.81235238 8.22256007 6.81235238 6 4 C2.93443402 3.26656572 2.93443402 3.26656572 0 3 C0 2.01 0 1.02 0 0 Z " fill="#EAE6DD" transform="translate(162,66)"/>
<path d="M0 0 C3.67253505 3.22808814 6.02900066 6.17799696 7 11 C7.08406811 12.55711074 7.11780938 14.1173852 7.11352539 15.67675781 C7.11344986 16.59741028 7.11337433 17.51806274 7.11329651 18.46661377 C7.10813522 19.45216248 7.10297394 20.43771118 7.09765625 21.453125 C7.0962413 22.46848328 7.09482635 23.48384155 7.09336853 24.52996826 C7.08777516 27.77000892 7.07522385 31.00998025 7.0625 34.25 C7.05748414 36.44791567 7.05292139 38.64583242 7.04882812 40.84375 C7.0378079 46.22919029 7.02107633 51.61459019 7 57 C9.31 56.34 11.62 55.68 14 55 C13.875 56.8125 13.875 56.8125 13 59 C7.84694346 62.79698903 2.13845012 62.69350429 -4 62 C-7.81403632 60.4108182 -9.75033707 58.43369605 -12 55 C-12.886875 55.78375 -13.77375 56.5675 -14.6875 57.375 C-19.74162453 61.84143563 -24.79257551 62.43877391 -31.33984375 62.32421875 C-35.06230004 61.87052731 -37.20709571 60.44379126 -40 58 C-40.598125 57.484375 -41.19625 56.96875 -41.8125 56.4375 C-44.76322761 52.86556658 -44.45838532 48.18918857 -44.39453125 43.7890625 C-43.73948091 39.1583106 -41.65251973 36.78322004 -38 34 C-31.98748432 30.1942055 -25.4493984 28.01525599 -18.6640625 25.9921875 C-14.92471215 24.6058703 -14.92471215 24.6058703 -12 22 C-11.56280376 19.20797435 -11.39484111 16.91037429 -11.4375 14.125 C-11.41365234 13.41730469 -11.38980469 12.70960937 -11.36523438 11.98046875 C-11.37616399 8.06766687 -11.87676867 6.16402219 -14.2421875 3.015625 C-17.12779357 0.90659847 -18.1994394 0.39996383 -21.6875 0.625 C-22.83798828 0.67527344 -22.83798828 0.67527344 -24.01171875 0.7265625 C-26.07001778 0.90118187 -26.07001778 0.90118187 -28 2 C-27.195625 2.804375 -26.39125 3.60875 -25.5625 4.4375 C-22 8 -22 8 -21.6875 11.25 C-22 15 -22 15 -23.4375 17.875 C-26.58612695 20.4860565 -28.78478406 20.95903508 -32.80859375 21.2109375 C-36.14719082 20.88957522 -37.78607996 19.42147504 -40 17 C-41.66262146 13.67475707 -41.87171821 10.55096976 -41 7 C-32.39511614 -4.57997669 -12.15511783 -7.25754426 0 0 Z " fill="#EDE9E0" transform="translate(532,90)"/>
<path d="M0 0 C0.01213028 1.02357353 0.01213028 1.02357353 0.02450562 2.06782532 C0.1104228 9.1566564 0.20992069 16.24520369 0.31738281 23.33374023 C0.35571579 25.98082725 0.39056094 28.62796713 0.421875 31.27514648 C0.46743145 35.07555056 0.52544197 38.87558932 0.5859375 42.67578125 C0.59748871 43.86335526 0.60903992 45.05092926 0.62094116 46.27449036 C0.64081085 47.37540512 0.66068054 48.47631989 0.68115234 49.6105957 C0.69447601 50.58100296 0.70779968 51.55141022 0.7215271 52.55122375 C0.84005053 55.25530402 0.84005053 55.25530402 3 58 C7.06940862 58.53746906 9.2656067 58.44063598 12.8125 56.3125 C17.29059764 51.57851107 17.29784468 46.67011228 17.265625 40.41015625 C17.26753845 39.58801132 17.2694519 38.76586639 17.27142334 37.91880798 C17.27278061 36.18488254 17.26911621 34.45094677 17.26074219 32.71704102 C17.25004977 30.07479816 17.26064581 27.43323727 17.2734375 24.79101562 C17.27211556 23.10156101 17.26955244 21.41210682 17.265625 19.72265625 C17.26967346 18.93810562 17.27372192 18.15355499 17.27789307 17.3452301 C17.23976671 12.84458381 16.6989232 9.24098132 15 5 C12.525 4.505 12.525 4.505 10 4 C10 3.01 10 2.02 10 1 C18.58 0.67 27.16 0.34 36 0 C36.04898438 3.92390625 36.09796875 7.8478125 36.1484375 11.890625 C36.20243145 15.68672535 36.25974527 19.48276203 36.31738281 23.27880859 C36.35568967 25.91905993 36.39053949 28.55936376 36.421875 31.19970703 C36.46748789 34.99270401 36.52548956 38.78533905 36.5859375 42.578125 C36.59748871 43.76053772 36.60903992 44.94295044 36.62094116 46.16119385 C36.64081085 47.26203308 36.66068054 48.36287231 36.68115234 49.49707031 C36.69447601 50.46525696 36.70779968 51.4334436 36.7215271 52.43096924 C37.01232912 55.11374137 37.49837107 56.76495965 39 59 C41.55519921 59.81171228 41.55519921 59.81171228 44 60 C44 60.99 44 61.98 44 63 C35.42 63.33 26.84 63.66 18 64 C17.505 60.535 17.505 60.535 17 57 C16.34 57.763125 15.68 58.52625 15 59.3125 C10.28341107 63.95003995 4.92459184 65.17054149 -1.5625 65.4375 C-6.92088125 65.25196048 -9.82572206 64.40757383 -14 61 C-18.16866447 55.14435294 -18.56521436 49.4756678 -18.50390625 42.48046875 C-18.51332748 41.50008133 -18.52274872 40.51969391 -18.53245544 39.50959778 C-18.56096197 36.40201518 -18.56418727 33.29520245 -18.5625 30.1875 C-18.56610545 27.0620585 -18.57556922 23.9371692 -18.60325623 20.81184387 C-18.62007637 18.87318456 -18.62289552 16.93434224 -18.61024475 14.99565125 C-18.61712814 14.12076553 -18.62401154 13.24587982 -18.63110352 12.34448242 C-18.63014175 11.57585373 -18.62917999 10.80722504 -18.62818909 10.01530457 C-19.09972584 7.45946197 -19.98271151 6.58946378 -22 5 C-24.10332891 4.28552357 -24.10332891 4.28552357 -26 4 C-26 3.01 -26 2.02 -26 1 C-22.60426181 0.83135681 -19.20839586 0.66543535 -15.8125 0.5 C-14.37293945 0.42845703 -14.37293945 0.42845703 -12.90429688 0.35546875 C-11.50727539 0.28779297 -11.50727539 0.28779297 -10.08203125 0.21875 C-9.22843018 0.17685547 -8.3748291 0.13496094 -7.49536133 0.09179688 C-4.99431836 -0.00020901 -2.50247783 -0.0061251 0 0 Z " fill="#EFEBE2" transform="translate(439,88)"/>
<path d="M0 0 C6.68274716 6.9865084 6.75 12.00118701 6.75 21.875 C-4.47 21.875 -15.69 21.875 -27.25 21.875 C-26.12763116 35.47297542 -26.12763116 35.47297542 -20 46.9375 C-16.47033237 49.42431128 -13.49613909 50.26170195 -9.25 49.875 C-3.4009268 48.22994816 0.24867952 45.91690149 3.75 40.875 C4.41 40.875 5.07 40.875 5.75 40.875 C5.13338338 47.34947446 2.59933317 51.06769713 -2 55.5625 C-9.01624699 60.55482959 -15.67317036 61.91425373 -24.25 60.875 C-32.0061 59.07730335 -36.79590788 55.40214031 -41.25 48.875 C-46.95944448 39.42308429 -47.63335631 28.66655098 -45.71875 17.8828125 C-43.12373332 8.60280721 -37.68727463 1.68372082 -29.375 -3.234375 C-19.4618159 -7.61269798 -8.77422085 -5.73699055 0 0 Z " fill="#ECE8DF" transform="translate(864.25,92.125)"/>
<path d="M0 0 C6.7337787 6.92082811 6.25 12.1071601 6.25 22.3125 C-4.64 22.3125 -15.53 22.3125 -26.75 22.3125 C-26.55516531 37.40509309 -26.55516531 37.40509309 -18.91796875 47.984375 C-14.86845069 50.46516084 -10.32915969 49.91641816 -5.75 49.3125 C-2.272492 47.573746 -0.3776163 46.14932173 1.9375 43.0625 C2.370625 42.485 2.80375 41.9075 3.25 41.3125 C4.24 41.3125 5.23 41.3125 6.25 41.3125 C5.22406559 48.15608603 1.57426476 53.42403488 -3.75 57.75 C-11.10382187 61.58011556 -18.35193183 62.74527276 -26.47265625 60.58984375 C-34.36696452 57.64882694 -39.03452284 54.18487163 -43.125 46.8125 C-47.55241177 36.59449968 -47.92614774 22.95508251 -44.125 12.4375 C-40.11846817 4.60591688 -34.79583186 -0.14733398 -26.75 -3.6875 C-17.51617601 -6.66493712 -8.08870792 -4.96352532 0 0 Z " fill="#ECE8DF" transform="translate(803.75,91.6875)"/>
<path d="M0 0 C4.10293405 3.59006729 5.86497501 5.35269518 6.3125 10.8125 C6.27673467 14.09098835 5.99591603 15.00661884 4.1875 17.9375 C1.35796607 20.60534627 -0.5331709 20.9481301 -4.375 21.375 C-8 21 -8 21 -10.9375 19.0625 C-13.33816034 15.49788314 -13.77882744 13.38638392 -13.57421875 9.16015625 C-12.56610383 5.36772394 -10.21496702 4.07633287 -7 2 C-9.86728634 -0.32319869 -9.86728634 -0.32319869 -13.375 0.0625 C-18.46319431 1.37841232 -20.38298394 3.49521041 -23.1953125 7.8515625 C-26.1764354 13.75126726 -26.38686657 19.58082573 -26.4375 26.0625 C-26.4475708 26.90111572 -26.4576416 27.73973145 -26.46801758 28.60375977 C-26.36763932 35.87584432 -25.17036031 42.34130862 -20.5 48.0625 C-16.19067796 51.16521187 -11.04211396 50.81784289 -6 50 C-2.522492 48.261246 -0.6276163 46.83682173 1.6875 43.75 C2.120625 43.1725 2.55375 42.595 3 42 C3.99 42 4.98 42 6 42 C5.70027554 47.99448919 3.03446999 51.78332814 -1 56 C-8.2490661 61.64898433 -14.90687648 62.84418919 -24 62 C-31.11037795 60.28938733 -36.7922606 57.04462056 -41 51 C-46.92896747 40.55659029 -47.83528845 28.5394892 -45.3359375 16.91015625 C-42.45875539 8.79149891 -36.55477107 2.09216766 -29 -2 C-19.68492936 -5.80206965 -8.52717425 -5.52489831 0 0 Z " fill="#EDE9E0" transform="translate(597,91)"/>
<path d="M0 0 C2.76787767 2.79120248 3.55182318 5.49179385 3.765625 9.27734375 C3.53078186 13.49740374 2.33077968 15.77116876 -0.796875 18.71484375 C-3.94598979 20.28940114 -6.31696316 20.06283493 -9.796875 19.71484375 C-13.01770555 17.84090598 -15.292142 16.50304068 -16.34375 12.77734375 C-16.62732287 8.61827504 -16.12559865 7.10256908 -13.359375 3.83984375 C-12.51375 3.13859375 -11.668125 2.43734375 -10.796875 1.71484375 C-10.466875 1.05484375 -10.136875 0.39484375 -9.796875 -0.28515625 C-14.90430525 -1.64464954 -14.90430525 -1.64464954 -19.78125 -0.26171875 C-25.44694351 4.31441832 -27.66145344 9.5807791 -28.796875 16.71484375 C-29.57218373 32.652783 -29.57218373 32.652783 -22.796875 46.71484375 C-18.31955276 49.69972524 -14.04652713 49.31606089 -8.796875 48.71484375 C-4.33154094 47.15679553 -1.44060038 44.61086009 1.203125 40.71484375 C1.863125 40.71484375 2.523125 40.71484375 3.203125 40.71484375 C2.56632953 47.40119615 -0.29820017 51.52246758 -5.171875 55.96484375 C-11.70449273 61.21844369 -18.64468718 61.55527548 -26.796875 60.71484375 C-33.84018888 58.80184492 -40.10785685 54.7365563 -44.18603516 48.63720703 C-47.91605764 41.75573699 -48.56282849 35.9672856 -48.421875 28.21484375 C-48.44121094 27.15136719 -48.46054687 26.08789062 -48.48046875 24.9921875 C-48.42692352 16.26431479 -46.18667513 9.86549318 -40.65625 3.09375 C-29.16992959 -6.79724813 -13.00814376 -9.30365065 0 0 Z " fill="#EEEAE1" transform="translate(362.796875,92.28515625)"/>
<path d="M0 0 C0 6.27 0 12.54 0 19 C4.62 19 9.24 19 14 19 C14 19.66 14 20.32 14 21 C9.38 21 4.76 21 0 21 C0.11799958 28.36909296 0.24222971 35.73804404 0.37231445 43.10693359 C0.41570903 45.61536784 0.4573807 48.12383249 0.49731445 50.63232422 C0.55490757 54.23153868 0.61863343 57.83059942 0.68359375 61.4296875 C0.70030624 62.55680145 0.71701874 63.68391541 0.73423767 64.84518433 C0.75418289 65.88611237 0.77412811 66.92704041 0.79467773 67.99951172 C0.81799416 69.37851151 0.81799416 69.37851151 0.84178162 70.78536987 C0.8610678 73.04075154 0.8610678 73.04075154 2 75 C4.64 75 7.28 75 10 75 C10.66 73.35 11.32 71.7 12 70 C13.32 70 14.64 70 16 70 C14.13358437 75.44371225 11.88054777 78.93066891 6.8125 81.8125 C1.10276656 83.59094156 -3.57087914 83.84084953 -9.25 81.875 C-12.9360131 79.36180925 -16.17210569 76.48205775 -17.62962341 72.11236572 C-18.0443635 69.74698203 -18.11984642 67.5416385 -18.11352539 65.13964844 C-18.11344986 64.17895447 -18.11337433 63.2182605 -18.11329651 62.22845459 C-18.10813522 61.19915833 -18.10297394 60.16986206 -18.09765625 59.109375 C-18.0962413 58.04962463 -18.09482635 56.98987427 -18.09336853 55.89801025 C-18.08777382 52.51531138 -18.07522225 49.13267885 -18.0625 45.75 C-18.05748432 43.45573012 -18.05292153 41.16145921 -18.04882812 38.8671875 C-18.03780611 33.24476613 -18.02054507 27.62239431 -18 22 C-21.3 22 -24.6 22 -28 22 C-28 21.01 -28 20.02 -28 19 C-24.7 19 -21.4 19 -18 19 C-18 13.72 -18 8.44 -18 3 C-15.586875 2.505 -13.17375 2.01 -10.6875 1.5 C-9.93170654 1.34337891 -9.17591309 1.18675781 -8.3972168 1.02539062 C-5.54118734 0.44707048 -2.92148456 0 0 0 Z " fill="#EDE9E0" transform="translate(397,70)"/>
<path d="M0 0 C4.57258453 3.78614493 7.03637671 8.14781428 8 14 C8.28095213 18.23269299 8.27909505 22.44689639 8.25 26.6875 C8.25773438 27.79544922 8.26546875 28.90339844 8.2734375 30.04492188 C8.22263108 51.77736892 8.22263108 51.77736892 0 60 C-3.375 60.0625 -3.375 60.0625 -7 59 C-8.74491875 56.54768175 -9.85957211 54.69555683 -11 52 C-11.391875 51.175 -11.78375 50.35 -12.1875 49.5 C-16.026765 37.68687693 -16.18874635 17.79497573 -10.82421875 6.53125 C-8.00690742 1.81079915 -5.93322441 -1.07876807 0 0 Z " fill="#2D231B" transform="translate(643,90)"/>
<path d="M0 0 C4.57258453 3.78614493 7.03637671 8.14781428 8 14 C8.28095213 18.23269299 8.27909505 22.44689639 8.25 26.6875 C8.25773437 27.79544922 8.26546875 28.90339844 8.2734375 30.04492188 C8.22263108 51.77736892 8.22263108 51.77736892 0 60 C-3.375 60.0625 -3.375 60.0625 -7 59 C-8.74491875 56.54768175 -9.85957211 54.69555683 -11 52 C-11.391875 51.175 -11.78375 50.35 -12.1875 49.5 C-16.026765 37.68687693 -16.18874635 17.79497573 -10.82421875 6.53125 C-8.00690742 1.81079915 -5.93322441 -1.07876807 0 0 Z " fill="#29211B" transform="translate(279,90)"/>
<path d="M0 0 C-0.99 1.485 -0.99 1.485 -2 3 C-0.35 2.01 1.3 1.02 3 0 C3.02892857 3.95831809 3.04677427 7.91660917 3.0625 11.875 C3.07087891 13.00292969 3.07925781 14.13085938 3.08789062 15.29296875 C3.09111328 16.36933594 3.09433594 17.44570312 3.09765625 18.5546875 C3.10289307 19.54968262 3.10812988 20.54467773 3.11352539 21.56982422 C3 24 3 24 2 26 C2.66 26 3.32 26 4 26 C3.67 27.32 3.34 28.64 3 30 C2.34 30 1.68 30 1 30 C-0.1446875 30.928125 -0.1446875 30.928125 -1.3125 31.875 C-6.42428038 35.91687286 -10.97750641 36.43553825 -17.33984375 36.32421875 C-21.06230004 35.87052731 -23.20709571 34.44379126 -26 32 C-26.598125 31.484375 -27.19625 30.96875 -27.8125 30.4375 C-30.76322761 26.86556658 -30.45838532 22.18918857 -30.39453125 17.7890625 C-29.73948091 13.1583106 -27.65251973 10.78322004 -24 8 C-18.68949938 4.63856609 -5.9423586 -2.9711793 0 0 Z " fill="#ECE8DF" transform="translate(518,116)"/>
<path d="M0 0 C1.32 0 2.64 0 4 0 C4 10.56 4 21.12 4 32 C2.35 31.67 0.7 31.34 -1 31 C-1.99 31.66 -2.98 32.32 -4 33 C-7.00574088 33.46755969 -9.05043034 33.59128296 -11.6875 31.94921875 C-13.88625037 30.15744862 -15.72049113 28.55901775 -17 26 C-17.41251687 21.07359656 -17.6526414 16.52282992 -15.6875 11.9375 C-13.06752382 8.9293792 -11.50616263 8.03615447 -7.5 7.75 C-4 8 -4 8 -1 10 C-0.67 6.7 -0.34 3.4 0 0 Z " fill="#DCD8CF" transform="translate(264,239)"/>
<path d="M0 0 C3.5 1.1875 3.5 1.1875 6 3 C7.52941797 7.47960673 6.71951602 11.74136584 6.0625 16.3125 C5.5365625 20.1178125 5.5365625 20.1178125 5 24 C-1.93 24 -8.86 24 -16 24 C-16.12375 20.225625 -16.12375 20.225625 -16.25 16.375 C-16.28641602 15.59431152 -16.32283203 14.81362305 -16.36035156 14.00927734 C-16.44089091 8.89243061 -15.37669723 6.04474884 -12 2 C-7.93697583 -0.70868278 -4.76541012 -0.51956771 0 0 Z " fill="#2D2119" transform="translate(719,65)"/>
<path d="M0 0 C1.9375 1.5 1.9375 1.5 3 3 C3.33 2.01 3.66 1.02 4 0 C4.99 0 5.98 0 7 0 C7 10.89 7 21.78 7 33 C5.68 33 4.36 33 3 33 C2.505 28.05 2.505 28.05 2 23 C1.01 23.66 0.02 24.32 -1 25 C-4.87987576 24.85891361 -7.22495582 24.60746706 -10.3125 22.1875 C-13.45077137 18.11937045 -14.45295088 15.33897482 -14.32421875 10.03125 C-13.79002404 6.68448796 -12.13123774 4.55748529 -10 2 C-6.30513897 -0.46324069 -4.36706908 -0.38991688 0 0 Z " fill="#E2DDD5" transform="translate(433,247)"/>
<path d="M0 0 C4.56944444 2.13888889 4.56944444 2.13888889 6 5 C6.08342159 6.44848582 6.10732861 7.90070869 6.09765625 9.3515625 C6.09443359 10.20234375 6.09121094 11.053125 6.08789062 11.9296875 C6.07951172 12.81914062 6.07113281 13.70859375 6.0625 14.625 C6.05798828 15.5221875 6.05347656 16.419375 6.04882812 17.34375 C6.03702591 19.56256648 6.02056155 21.78125018 6 24 C5.21367188 23.814375 4.42734375 23.62875 3.6171875 23.4375 C1.04090136 22.73348841 1.04090136 22.73348841 -0.875 24 C-4.14143137 25.53714418 -6.56428973 24.81207697 -10 24 C-11.9375 22.875 -11.9375 22.875 -13 21 C-13.4375 17.5 -13.4375 17.5 -13 14 C-10.1628314 11.25414258 -7.58857173 10.4690978 -3.75 9.8125 C-2.85796875 9.65394531 -1.9659375 9.49539063 -1.046875 9.33203125 C-0.37140625 9.22246094 0.3040625 9.11289062 1 9 C0.67 7.35 0.34 5.7 0 4 C-4.7897321 3.76571687 -4.7897321 3.76571687 -9 6 C-9.99 6 -10.98 6 -12 6 C-11.6875 4.125 -11.6875 4.125 -11 2 C-7.29702456 -0.46865029 -4.29548969 -0.56100937 0 0 Z " fill="#CEC8C0" transform="translate(596,247)"/>
<path d="M0 0 C3.42652433 0.7405309 4.82713947 1.79288754 7.1328125 4.4609375 C7.75082818 7.89579559 7.6035162 11.23532397 7.4453125 14.7109375 C7.42275391 15.64679688 7.40019531 16.58265625 7.37695312 17.546875 C7.31811845 19.85319424 7.23598396 22.15624588 7.1328125 24.4609375 C6.1840625 24.4403125 5.2353125 24.4196875 4.2578125 24.3984375 C1.22614967 24.23541924 1.22614967 24.23541924 -0.8671875 25.4609375 C-4.89910055 25.99852591 -6.4290911 25.7685371 -9.8046875 23.3984375 C-11.8671875 20.4609375 -11.8671875 20.4609375 -12.1171875 16.8359375 C-10.8671875 13.4609375 -10.8671875 13.4609375 -7.7421875 11.5234375 C-4.10551549 10.28862547 -0.6977911 10.22641075 3.1328125 10.4609375 C2.4728125 8.4809375 1.8128125 6.5009375 1.1328125 4.4609375 C-1.78370924 4.29412641 -1.78370924 4.29412641 -4.8671875 4.4609375 C-5.5271875 5.1209375 -6.1871875 5.7809375 -6.8671875 6.4609375 C-8.1871875 6.4609375 -9.5071875 6.4609375 -10.8671875 6.4609375 C-8.5269557 1.06040258 -5.76821291 0.24882487 0 0 Z " fill="#D4CFC5" transform="translate(889.8671875,246.5390625)"/>
<path d="M0 0 C3.42652433 0.7405309 4.82713947 1.79288754 7.1328125 4.4609375 C7.75082818 7.89579559 7.6035162 11.23532397 7.4453125 14.7109375 C7.42275391 15.64679688 7.40019531 16.58265625 7.37695312 17.546875 C7.31811845 19.85319424 7.23598396 22.15624588 7.1328125 24.4609375 C6.1840625 24.4403125 5.2353125 24.4196875 4.2578125 24.3984375 C1.22614967 24.23541924 1.22614967 24.23541924 -0.8671875 25.4609375 C-4.89910055 25.99852591 -6.4290911 25.7685371 -9.8046875 23.3984375 C-11.8671875 20.4609375 -11.8671875 20.4609375 -12.1171875 16.8359375 C-10.8671875 13.4609375 -10.8671875 13.4609375 -7.7421875 11.5234375 C-4.10551549 10.28862547 -0.6977911 10.22641075 3.1328125 10.4609375 C2.4728125 8.4809375 1.8128125 6.5009375 1.1328125 4.4609375 C-1.78370924 4.29412641 -1.78370924 4.29412641 -4.8671875 4.4609375 C-5.5271875 5.1209375 -6.1871875 5.7809375 -6.8671875 6.4609375 C-8.1871875 6.4609375 -9.5071875 6.4609375 -10.8671875 6.4609375 C-8.5269557 1.06040258 -5.76821291 0.24882487 0 0 Z " fill="#D3CEC6" transform="translate(355.8671875,246.5390625)"/>
<path d="M0 0 C3.5386994 1.65139305 4.81070153 2.71605229 7 6 C7 8.31 7 10.62 7 13 C1.39 13 -4.22 13 -10 13 C-7.97457541 19.85921354 -7.97457541 19.85921354 -4.625 21.125 C-1.34930663 20.9690146 0.29118218 19.78211699 3 18 C3.99 18 4.98 18 6 18 C5.8125 19.8125 5.8125 19.8125 5 22 C2.33712754 24.13029797 0.43811195 24.93474928 -2.9375 25.4375 C-6.86292527 24.87672496 -8.94797605 23.49711051 -12 21 C-14.7412348 16.60279743 -14.79952871 12.02673992 -14 7 C-10.65272917 0.79075039 -6.78137628 -0.45975432 0 0 Z " fill="#DED9D0" transform="translate(645,247)"/>
<path d="M0 0 C3.5386994 1.65139305 4.81070153 2.71605229 7 6 C7 8.31 7 10.62 7 13 C1.39 13 -4.22 13 -10 13 C-7.97457541 19.85921354 -7.97457541 19.85921354 -4.625 21.125 C-1.34930663 20.9690146 0.29118218 19.78211699 3 18 C3.99 18 4.98 18 6 18 C5.8125 19.8125 5.8125 19.8125 5 22 C2.33712754 24.13029797 0.43811195 24.93474928 -2.9375 25.4375 C-6.86292527 24.87672496 -8.94797605 23.49711051 -12 21 C-14.7412348 16.60279743 -14.79952871 12.02673992 -14 7 C-10.65272917 0.79075039 -6.78137628 -0.45975432 0 0 Z " fill="#DDD9D0" transform="translate(396,247)"/>
<path d="M0 0 C2.97672584 1.77280561 5.42804007 3.85608015 7 7 C7 8.98 7 10.96 7 13 C1.39 13 -4.22 13 -10 13 C-9.01 15.31 -8.02 17.62 -7 20 C-4.10927047 21.32908167 -4.10927047 21.32908167 -1 21 C1.17032476 19.56009377 1.17032476 19.56009377 3 18 C3.99 18.33 4.98 18.66 6 19 C5.05275873 21.36810318 4.34708866 22.75207953 2.25 24.25 C-0.74964262 25.24988087 -2.84689983 25.37837202 -6 25 C-9.6578218 22.96006092 -11.66946174 21.49580738 -14 18 C-14.65237324 13.62566572 -15.03401151 8.98730094 -12.94921875 4.98046875 C-8.99890753 0.19115337 -6.09443742 -0.60944374 0 0 Z " fill="#EAE6DD" transform="translate(287,247)"/>
<path d="M0 0 C2.97672584 1.77280561 5.42804007 3.85608015 7 7 C7 8.98 7 10.96 7 13 C1.39 13 -4.22 13 -10 13 C-9.01 15.31 -8.02 17.62 -7 20 C-4.10927047 21.32908167 -4.10927047 21.32908167 -1 21 C1.17032476 19.56009377 1.17032476 19.56009377 3 18 C3.99 18.33 4.98 18.66 6 19 C5.05275873 21.36810318 4.34708866 22.75207953 2.25 24.25 C-0.74964262 25.24988087 -2.84689983 25.37837202 -6 25 C-9.6578218 22.96006092 -11.66946174 21.49580738 -14 18 C-14.65237324 13.62566572 -15.03401151 8.98730094 -12.94921875 4.98046875 C-8.99890753 0.19115337 -6.09443742 -0.60944374 0 0 Z " fill="#CDC7BF" transform="translate(485,247)"/>
<path d="M0 0 C3.5108029 0.06314394 4.5251691 0.49873475 7.75 2.375 C10.3125 5.375 10.3125 5.375 11.3125 13.375 C5.3725 13.375 -0.5675 13.375 -6.6875 13.375 C-5.6975 15.355 -4.7075 17.335 -3.6875 19.375 C-3.6875 20.035 -3.6875 20.695 -3.6875 21.375 C-0.31285976 21.6253577 -0.31285976 21.6253577 3.3125 21.375 C4.97960346 19.87514391 4.97960346 19.87514391 6.3125 18.375 C8.5 18.6875 8.5 18.6875 10.3125 19.375 C9.3125 22.375 9.3125 22.375 7.3125 24.125 C3.1097641 25.87613996 -0.33331169 25.58766179 -4.6875 24.375 C-7.68202434 22.12910675 -8.50373122 20.92630633 -9.6875 17.375 C-10.73406026 7.71674392 -10.73406026 7.71674392 -7.25 3.25 C-6.404375 2.63125 -5.55875 2.0125 -4.6875 1.375 C-3.6875 0.375 -3.6875 0.375 0 0 Z " fill="#C7C1B8" transform="translate(801.6875,246.625)"/>
<path d="M0 0 C3.5108029 0.06314394 4.5251691 0.49873475 7.75 2.375 C10.3125 5.375 10.3125 5.375 11.3125 13.375 C5.3725 13.375 -0.5675 13.375 -6.6875 13.375 C-5.6975 15.355 -4.7075 17.335 -3.6875 19.375 C-3.6875 20.035 -3.6875 20.695 -3.6875 21.375 C-0.31285976 21.6253577 -0.31285976 21.6253577 3.3125 21.375 C4.97960346 19.87514391 4.97960346 19.87514391 6.3125 18.375 C8.5 18.6875 8.5 18.6875 10.3125 19.375 C9.3125 22.375 9.3125 22.375 7.3125 24.125 C3.1097641 25.87613996 -0.33331169 25.58766179 -4.6875 24.375 C-7.68202434 22.12910675 -8.50373122 20.92630633 -9.6875 17.375 C-10.73406026 7.71674392 -10.73406026 7.71674392 -7.25 3.25 C-6.404375 2.63125 -5.55875 2.0125 -4.6875 1.375 C-3.6875 0.375 -3.6875 0.375 0 0 Z " fill="#C7C1B8" transform="translate(530.6875,246.625)"/>
<path d="M0 0 C0.17426756 3.91610484 0.28084155 7.83121497 0.375 11.75 C0.45041016 13.41675781 0.45041016 13.41675781 0.52734375 15.1171875 C0.5827996 18.18574454 0.56204756 20.98185031 0 24 C-3.43166486 27.40282734 -4.9323497 28 -9.75 28 C-13 27 -13 27 -14.16796875 25.234375 C-15.69924887 21.12220492 -15.84032492 17.29858517 -15 13 C-12.59882044 8.90094495 -5.2290638 0 0 0 Z " fill="#2E251E" transform="translate(521,116)"/>
<path d="M0 0 C2.8100346 1.79363911 4.50940468 3.01880935 6 6 C6 8.31 6 10.62 6 13 C0.39 13 -5.22 13 -11 13 C-10.01 15.31 -9.02 17.62 -8 20 C-4.06742675 21.12359236 -1.88155977 21.29385326 2 20 C2 19.34 2 18.68 2 18 C3.32 18.33 4.64 18.66 6 19 C2.25 23.875 2.25 23.875 0 25 C-5.86390959 25.67660495 -5.86390959 25.67660495 -8.7578125 23.953125 C-10.93626824 22.16405507 -12.72957812 20.54084375 -14 18 C-14.93762008 7.59395414 -14.93762008 7.59395414 -12.125 2.8125 C-8.37300875 -0.38772783 -4.80713131 -0.69067979 0 0 Z " fill="#F1EDE4" transform="translate(705,247)"/>
<path d="M0 0 C3.42652433 0.7405309 4.82713947 1.79288754 7.1328125 4.4609375 C7.75082818 7.89579559 7.6035162 11.23532397 7.4453125 14.7109375 C7.42275391 15.64679688 7.40019531 16.58265625 7.37695312 17.546875 C7.31811845 19.85319424 7.23598396 22.15624588 7.1328125 24.4609375 C6.1428125 24.4609375 5.1528125 24.4609375 4.1328125 24.4609375 C4.1328125 23.8009375 4.1328125 23.1409375 4.1328125 22.4609375 C3.4521875 22.9765625 2.7715625 23.4921875 2.0703125 24.0234375 C-1.74038588 25.88824734 -3.8084413 25.51320503 -7.8671875 24.4609375 C-9.8046875 23.3359375 -9.8046875 23.3359375 -10.8671875 21.4609375 C-11.3046875 17.9609375 -11.3046875 17.9609375 -10.8671875 14.4609375 C-8.0300189 11.71508008 -5.45575923 10.9300353 -1.6171875 10.2734375 C-0.72515625 10.11488281 0.166875 9.95632813 1.0859375 9.79296875 C1.76140625 9.68339844 2.436875 9.57382812 3.1328125 9.4609375 C3.1328125 8.1409375 3.1328125 6.8209375 3.1328125 5.4609375 C0.37031214 4.07968732 -1.81449849 4.27014444 -4.8671875 4.4609375 C-5.5271875 5.1209375 -6.1871875 5.7809375 -6.8671875 6.4609375 C-7.8571875 6.4609375 -8.8471875 6.4609375 -9.8671875 6.4609375 C-9.5546875 4.5859375 -9.5546875 4.5859375 -8.8671875 2.4609375 C-5.67500612 0.33281658 -3.76299318 0.1623252 0 0 Z " fill="#E1DCD3" transform="translate(935.8671875,246.5390625)"/>
<path d="M0 0 C3.42652433 0.7405309 4.82713947 1.79288754 7.1328125 4.4609375 C7.75082818 7.89579559 7.6035162 11.23532397 7.4453125 14.7109375 C7.42275391 15.64679688 7.40019531 16.58265625 7.37695312 17.546875 C7.31811845 19.85319424 7.23598396 22.15624588 7.1328125 24.4609375 C6.1428125 24.4609375 5.1528125 24.4609375 4.1328125 24.4609375 C4.1328125 23.8009375 4.1328125 23.1409375 4.1328125 22.4609375 C3.4521875 22.9765625 2.7715625 23.4921875 2.0703125 24.0234375 C-1.74038588 25.88824734 -3.8084413 25.51320503 -7.8671875 24.4609375 C-9.8046875 23.3359375 -9.8046875 23.3359375 -10.8671875 21.4609375 C-11.3046875 17.9609375 -11.3046875 17.9609375 -10.8671875 14.4609375 C-8.0300189 11.71508008 -5.45575923 10.9300353 -1.6171875 10.2734375 C-0.72515625 10.11488281 0.166875 9.95632813 1.0859375 9.79296875 C1.76140625 9.68339844 2.436875 9.57382812 3.1328125 9.4609375 C3.1328125 8.1409375 3.1328125 6.8209375 3.1328125 5.4609375 C0.37031214 4.07968732 -1.81449849 4.27014444 -4.8671875 4.4609375 C-5.5271875 5.1209375 -6.1871875 5.7809375 -6.8671875 6.4609375 C-7.8571875 6.4609375 -8.8471875 6.4609375 -9.8671875 6.4609375 C-9.5546875 4.5859375 -9.5546875 4.5859375 -8.8671875 2.4609375 C-5.67500612 0.33281658 -3.76299318 0.1623252 0 0 Z " fill="#E0DCD3" transform="translate(211.8671875,246.5390625)"/>
<path d="M0 0 C3.76731401 1.96555514 4.68008039 3.91252034 6.1953125 7.80078125 C7.36089201 12.42960564 7.1156159 16.747836 6.875 21.5 C0.935 21.5 -5.005 21.5 -11.125 21.5 C-9.6681464 6.20303717 -9.6681464 6.20303717 -4.7734375 1.53515625 C-3.125 0.5 -3.125 0.5 0 0 Z " fill="#2D2119" transform="translate(848.125,89.5)"/>
<path d="M0 0 C2.79035429 2.2477854 3.85910005 3.57730016 5 7 C5.13590447 11.66967754 5.04286807 16.32737985 5 21 C-0.61 21 -6.22 21 -12 21 C-11.53064309 13.39641806 -11.12402885 7.40204065 -6.625 1.0625 C-4.23290658 -0.50156109 -2.79869086 -0.47782527 0 0 Z " fill="#2C2119" transform="translate(789,90)"/>
<path d="M0 0 C6.27 0 12.54 0 19 0 C19 0.99 19 1.98 19 3 C14.05 3 9.1 3 4 3 C4 6.96 4 10.92 4 15 C8.62 15 13.24 15 18 15 C18 15.99 18 16.98 18 18 C13.38 18 8.76 18 4 18 C4 21.63 4 25.26 4 29 C9.28 29 14.56 29 20 29 C20 29.99 20 30.98 20 32 C13.4 32 6.8 32 0 32 C0 21.44 0 10.88 0 0 Z " fill="#DDD9D0" transform="translate(90,239)"/>
<path d="M0 0 C0.99 0 1.98 0 3 0 C3.33 2.97 3.66 5.94 4 9 C4.99 8.34 5.98 7.68 7 7 C11.18803628 6.45710641 13.21858811 6.44748654 16.70703125 8.9140625 C19.9211978 13.23977216 19.56614146 16.57968152 19.3125 21.8125 C19.28994141 22.69615234 19.26738281 23.57980469 19.24414062 24.49023438 C19.18547428 26.6608891 19.09579979 28.8306669 19 31 C17.68 31 16.36 31 15 31 C14.95101562 29.72382813 14.90203125 28.44765625 14.8515625 27.1328125 C14.77653809 25.46351928 14.70099012 23.79424954 14.625 22.125 C14.5940625 21.28324219 14.563125 20.44148438 14.53125 19.57421875 C14.49257813 18.76855469 14.45390625 17.96289062 14.4140625 17.1328125 C14.3826416 16.38918457 14.3512207 15.64555664 14.31884766 14.87939453 C14.14580449 12.75989026 14.14580449 12.75989026 12 11 C7.65805064 11.09695116 7.65805064 11.09695116 4 13 C3.84417697 14.34015221 3.74955858 15.68758903 3.68359375 17.03515625 C3.62075195 18.24848633 3.62075195 18.24848633 3.55664062 19.48632812 C3.51732422 20.33646484 3.47800781 21.18660156 3.4375 22.0625 C3.39431641 22.91650391 3.35113281 23.77050781 3.30664062 24.65039062 C3.20023298 26.76672037 3.09958269 28.88333813 3 31 C2.01 31 1.02 31 0 31 C0 20.77 0 10.54 0 0 Z " fill="#D8D4CB" transform="translate(559,240)"/>
<path d="M0 0 C2.3125 1.4375 2.3125 1.4375 4 4 C4.72315883 8.30681257 4.4058041 11.91785573 2.875 16 C0.40809819 18.63136193 -1.47221403 18.76481427 -5 19 C-8.37206012 15.83869364 -9.34021853 13.44466888 -9.5 8.9375 C-9.3551293 5.58549179 -9.1596968 4.24841725 -7.3125 1.375 C-4.50869499 -0.2921273 -3.20383448 -0.6407669 0 0 Z " fill="#2C241E" transform="translate(260,250)"/>
<path d="M0 0 C0.99 0 1.98 0 3 0 C3.06058594 1.26457031 3.12117188 2.52914062 3.18359375 3.83203125 C3.26800904 5.49219871 3.35265655 7.15235437 3.4375 8.8125 C3.47681641 9.64587891 3.51613281 10.47925781 3.55664062 11.33789062 C3.59853516 12.14033203 3.64042969 12.94277344 3.68359375 13.76953125 C3.72025146 14.50792236 3.75690918 15.24631348 3.79467773 16.00708008 C3.94842141 18.207495 3.94842141 18.207495 5 21 C10.01535052 20.67039784 10.01535052 20.67039784 14 18 C14.36831081 16.06742145 14.36831081 16.06742145 14.4140625 13.8671875 C14.45273437 13.06152344 14.49140625 12.25585938 14.53125 11.42578125 C14.57765625 10.16314453 14.57765625 10.16314453 14.625 8.875 C14.68300781 7.60076172 14.68300781 7.60076172 14.7421875 6.30078125 C14.83656494 4.20088316 14.91937586 2.10047109 15 0 C16.32 0 17.64 0 19 0 C19 7.92 19 15.84 19 24 C17.35 23.67 15.7 23.34 14 23 C13.34 23.33 12.68 23.66 12 24 C4.92745193 24.57036678 4.92745193 24.57036678 1.7578125 22.62109375 C-0.98466032 18.53176206 -0.4247828 14.54980469 -0.25 9.75 C-0.23195313 8.81414062 -0.21390625 7.87828125 -0.1953125 6.9140625 C-0.14825673 4.60832985 -0.08253713 2.30469055 0 0 Z " fill="#E7E2D9" transform="translate(447,247)"/>
<path d="M0 0 C0.99 0 1.98 0 3 0 C3.06058594 1.26457031 3.12117187 2.52914062 3.18359375 3.83203125 C3.26800904 5.49219871 3.35265655 7.15235437 3.4375 8.8125 C3.47681641 9.64587891 3.51613281 10.47925781 3.55664062 11.33789062 C3.59853516 12.14033203 3.64042969 12.94277344 3.68359375 13.76953125 C3.72025146 14.50792236 3.75690918 15.24631348 3.79467773 16.00708008 C3.94842141 18.207495 3.94842141 18.207495 5 21 C10.01535052 20.67039784 10.01535052 20.67039784 14 18 C14.36831081 16.06742145 14.36831081 16.06742145 14.4140625 13.8671875 C14.45273438 13.06152344 14.49140625 12.25585938 14.53125 11.42578125 C14.57765625 10.16314453 14.57765625 10.16314453 14.625 8.875 C14.68300781 7.60076172 14.68300781 7.60076172 14.7421875 6.30078125 C14.83656494 4.20088316 14.91937586 2.10047109 15 0 C16.32 0 17.64 0 19 0 C19 7.92 19 15.84 19 24 C17.35 23.67 15.7 23.34 14 23 C13.34 23.33 12.68 23.66 12 24 C4.92745193 24.57036678 4.92745193 24.57036678 1.7578125 22.62109375 C-0.98466032 18.53176206 -0.4247828 14.54980469 -0.25 9.75 C-0.23195312 8.81414062 -0.21390625 7.87828125 -0.1953125 6.9140625 C-0.14825673 4.60832985 -0.08253713 2.30469055 0 0 Z " fill="#E7E2D9" transform="translate(177,247)"/>
<path d="M0 0 C3.4375 0.8125 3.4375 0.8125 5.4375 2.8125 C6.16383893 8.05734275 6.28334778 12.46443009 3.4375 17 C2.4475 17.8971875 2.4475 17.8971875 1.4375 18.8125 C-2.06358524 18.57909432 -3.97496192 18.40003808 -6.5 15.875 C-8.02770295 11.4716209 -7.76583012 7.30594791 -6.5625 2.8125 C-4.33734201 -0.22180635 -3.96102257 -0.20847487 0 0 Z " fill="#2E251E" transform="translate(430.5625,250.1875)"/>
<path d="M0 0 C0.99 0 1.98 0 3 0 C3.33 0.66 3.66 1.32 4 2 C4.99 1.34 5.98 0.68 7 0 C11.18803628 -0.54289359 13.21858811 -0.55251346 16.70703125 1.9140625 C19.9211978 6.23977216 19.56614146 9.57968152 19.3125 14.8125 C19.28994141 15.69615234 19.26738281 16.57980469 19.24414062 17.49023438 C19.18547428 19.6608891 19.09579979 21.8306669 19 24 C17.68 24 16.36 24 15 24 C14.95101562 22.72382813 14.90203125 21.44765625 14.8515625 20.1328125 C14.77653809 18.46351928 14.70099012 16.79424954 14.625 15.125 C14.5940625 14.28324219 14.563125 13.44148438 14.53125 12.57421875 C14.49257813 11.76855469 14.45390625 10.96289062 14.4140625 10.1328125 C14.3826416 9.38918457 14.3512207 8.64555664 14.31884766 7.87939453 C14.14580449 5.75989026 14.14580449 5.75989026 12 4 C7.65805064 4.09695116 7.65805064 4.09695116 4 6 C3.84417697 7.34015221 3.74955858 8.68758903 3.68359375 10.03515625 C3.62075195 11.24848633 3.62075195 11.24848633 3.55664062 12.48632812 C3.51732422 13.33646484 3.47800781 14.18660156 3.4375 15.0625 C3.39431641 15.91650391 3.35113281 16.77050781 3.30664062 17.65039062 C3.20023298 19.76672037 3.09958269 21.88333813 3 24 C2.01 24 1.02 24 0 24 C0 16.08 0 8.16 0 0 Z " fill="#D7D2C9" transform="translate(818,247)"/>
<path d="M0 0 C0.99 0 1.98 0 3 0 C3.33 0.66 3.66 1.32 4 2 C4.99 1.34 5.98 0.68 7 0 C11.18803628 -0.54289359 13.21858811 -0.55251346 16.70703125 1.9140625 C19.9211978 6.23977216 19.56614146 9.57968152 19.3125 14.8125 C19.28994141 15.69615234 19.26738281 16.57980469 19.24414062 17.49023438 C19.18547428 19.6608891 19.09579979 21.8306669 19 24 C17.68 24 16.36 24 15 24 C14.95101562 22.72382813 14.90203125 21.44765625 14.8515625 20.1328125 C14.77653809 18.46351928 14.70099012 16.79424954 14.625 15.125 C14.5940625 14.28324219 14.563125 13.44148438 14.53125 12.57421875 C14.49257813 11.76855469 14.45390625 10.96289062 14.4140625 10.1328125 C14.3826416 9.38918457 14.3512207 8.64555664 14.31884766 7.87939453 C14.14580449 5.75989026 14.14580449 5.75989026 12 4 C7.65805064 4.09695116 7.65805064 4.09695116 4 6 C3.84417697 7.34015221 3.74955858 8.68758903 3.68359375 10.03515625 C3.62075195 11.24848633 3.62075195 11.24848633 3.55664062 12.48632812 C3.51732422 13.33646484 3.47800781 14.18660156 3.4375 15.0625 C3.39431641 15.91650391 3.35113281 16.77050781 3.30664062 17.65039062 C3.20023298 19.76672037 3.09958269 21.88333813 3 24 C2.01 24 1.02 24 0 24 C0 16.08 0 8.16 0 0 Z " fill="#D7D2C9" transform="translate(717,247)"/>
<path d="M0 0 C3 1.875 3 1.875 5 4 C5 4.66 5 5.32 5 6 C0.125 5.125 0.125 5.125 -1 4 C-2.99958364 3.95919217 -5.00045254 3.95745644 -7 4 C-7 5.65 -7 7.3 -7 9 C-6.21753906 9.27714844 -5.43507813 9.55429687 -4.62890625 9.83984375 C-3.61699219 10.20207031 -2.60507812 10.56429688 -1.5625 10.9375 C-0.55316406 11.29714844 0.45617187 11.65679687 1.49609375 12.02734375 C4 13 4 13 5 14 C5.4375 17.3125 5.4375 17.3125 5 21 C2.01521472 23.77158633 -0.03145277 24.86163611 -4.0625 25.4375 C-7.43811195 24.93474928 -9.33712754 24.13029797 -12 22 C-12.8125 19.8125 -12.8125 19.8125 -13 18 C-11.68 18 -10.36 18 -9 18 C-8.525625 18.495 -8.05125 18.99 -7.5625 19.5 C-6.03621202 21.285826 -6.03621202 21.285826 -3.3125 21.1875 C-2.549375 21.125625 -1.78625 21.06375 -1 21 C-0.34 19.02 0.32 17.04 1 15 C0.39671875 14.89042969 -0.2065625 14.78085937 -0.828125 14.66796875 C-9.59410915 12.9289106 -9.59410915 12.9289106 -12 10 C-12.608676 6.42402849 -12.44405832 4.70309234 -10.5 1.625 C-7.05273173 -0.61572438 -3.94062714 -0.79592865 0 0 Z " fill="#DAD5CC" transform="translate(681,247)"/>
<path d="M0 0 C2.5 1.875 2.5 1.875 4 4 C4 4.66 4 5.32 4 6 C0.125 5.125 0.125 5.125 -1 4 C-2.99958364 3.95919217 -5.00045254 3.95745644 -7 4 C-7.66 5.65 -8.32 7.3 -9 9 C-8.24074219 9.18175781 -7.48148438 9.36351562 -6.69921875 9.55078125 C-5.70535156 9.80214844 -4.71148438 10.05351562 -3.6875 10.3125 C-2.70136719 10.55613281 -1.71523438 10.79976563 -0.69921875 11.05078125 C2.03178049 12.01117606 3.26132636 12.72590699 5 15 C5.5625 17.375 5.5625 17.375 5 20 C1.75056309 23.56645515 0.21800922 24.80768275 -4.5625 25.5625 C-8.5329254 24.91279402 -10.2554534 23.91088276 -13 21 C-13 20.01 -13 19.02 -13 18 C-11.68 18.33 -10.36 18.66 -9 19 C-9 19.66 -9 20.32 -9 21 C-4.34947128 21.26932521 -4.34947128 21.26932521 0 20 C0 18.68 0 17.36 0 16 C-0.77085937 15.74605469 -1.54171875 15.49210937 -2.3359375 15.23046875 C-3.33882812 14.88628906 -4.34171875 14.54210937 -5.375 14.1875 C-6.37273438 13.85105469 -7.37046875 13.51460938 -8.3984375 13.16796875 C-11 12 -11 12 -13 9 C-13.4375 6.5625 -13.4375 6.5625 -13 4 C-9.04260887 -0.57573349 -5.68857902 -0.72235924 0 0 Z " fill="#D7D2C9" transform="translate(916,247)"/>
<path d="M0 0 C2.875 1.25 2.875 1.25 5 3 C5.8125 5.1875 5.8125 5.1875 6 7 C4.68 7 3.36 7 2 7 C1.566875 6.484375 1.13375 5.96875 0.6875 5.4375 C-1.09156443 3.58860989 -1.09156443 3.58860989 -4.625 4.1875 C-6.295625 4.5896875 -6.295625 4.5896875 -8 5 C-9.84891267 8.69782533 -9.46801175 12.96339864 -9 17 C-7.5368109 19.8017483 -7.5368109 19.8017483 -5 21 C-2.3566226 21.08805146 -2.3566226 21.08805146 0 20 C0.66 19.01 1.32 18.02 2 17 C3.32 17.33 4.64 17.66 6 18 C4.98949988 20.66404576 4.02766415 21.97707828 1.8125 23.8125 C-1.98165538 25.41447672 -4.05868098 25.12609115 -8 24 C-10.875 21.5 -10.875 21.5 -13 19 C-13.33 18.67 -13.66 18.34 -14 18 C-14.52263424 13.61733856 -15.02371348 8.98248992 -12.953125 4.97265625 C-8.93297211 0.1366488 -6.14127527 -0.41635765 0 0 Z " fill="#DBD6CD" transform="translate(621,247)"/>
<path d="M0 0 C3.4375 1.8125 3.4375 1.8125 6 4 C6 4.99 6 5.98 6 7 C4.68 7 3.36 7 2 7 C1.525625 6.505 1.05125 6.01 0.5625 5.5 C-0.94694042 3.76176694 -0.94694042 3.76176694 -3.5 3.625 C-6.48414231 4.07262135 -7.17496338 4.65203025 -9 7 C-9.43633091 9.14313515 -9.43633091 9.14313515 -9.3125 11.4375 C-9.30863281 12.19933594 -9.30476562 12.96117187 -9.30078125 13.74609375 C-8.96559067 16.25784654 -8.38979357 17.88266348 -7 20 C-4.08995097 21.08223366 -4.08995097 21.08223366 -1 21 C0.64594139 19.60411246 0.64594139 19.60411246 2 18 C3.32 18 4.64 18 6 18 C4.98949988 20.66404576 4.02766415 21.97707828 1.8125 23.8125 C-1.98165538 25.41447672 -4.05868098 25.12609115 -8 24 C-11.6734668 20.96539699 -13.63319667 18.75102499 -14.2734375 13.94921875 C-14.46508086 9.68146862 -14.41093753 6.8840947 -11.625 3.5 C-7.66734541 -0.26919485 -5.44976251 -0.45414688 0 0 Z " fill="#DCD7CE" transform="translate(868,247)"/>
<path d="M0 0 C3.4375 1.8125 3.4375 1.8125 6 4 C6 4.99 6 5.98 6 7 C4.68 7 3.36 7 2 7 C1.525625 6.505 1.05125 6.01 0.5625 5.5 C-0.94694042 3.76176694 -0.94694042 3.76176694 -3.5 3.625 C-6.48414231 4.07262135 -7.17496338 4.65203025 -9 7 C-9.43633091 9.14313515 -9.43633091 9.14313515 -9.3125 11.4375 C-9.30863281 12.19933594 -9.30476563 12.96117187 -9.30078125 13.74609375 C-8.96559067 16.25784654 -8.38979357 17.88266348 -7 20 C-4.08995097 21.08223366 -4.08995097 21.08223366 -1 21 C0.64594139 19.60411246 0.64594139 19.60411246 2 18 C3.32 18 4.64 18 6 18 C4.98949988 20.66404576 4.02766415 21.97707828 1.8125 23.8125 C-1.98165538 25.41447672 -4.05868098 25.12609115 -8 24 C-11.6734668 20.96539699 -13.63319667 18.75102499 -14.2734375 13.94921875 C-14.46508086 9.68146862 -14.41093753 6.8840947 -11.625 3.5 C-7.66734541 -0.26919485 -5.44976251 -0.45414688 0 0 Z " fill="#DCD7CE" transform="translate(334,247)"/>
<path d="M0 0 C0 0.99 0 1.98 0 3 C-1.65 3.33 -3.3 3.66 -5 4 C-5.33 5.65 -5.66 7.3 -6 9 C-4.35 9 -2.7 9 -1 9 C-1 9.99 -1 10.98 -1 12 C-2.65 12 -4.3 12 -6 12 C-6 18.93 -6 25.86 -6 33 C-7.32 33 -8.64 33 -10 33 C-10 26.07 -10 19.14 -10 12 C-11.65 12 -13.3 12 -15 12 C-15 11.01 -15 10.02 -15 9 C-13.35 9 -11.7 9 -10 9 C-10.061875 8.071875 -10.12375 7.14375 -10.1875 6.1875 C-10 3 -10 3 -8.9375 1.125 C-5.99772876 -0.58196395 -3.32129197 -0.18799766 0 0 Z " fill="#DAD5CD" transform="translate(381,238)"/>
<path d="M0 0 C1.32 0 2.64 0 4 0 C4 1.65 4 3.3 4 5 C5.65 5 7.3 5 9 5 C9 5.99 9 6.98 9 8 C7.35 8 5.7 8 4 8 C4 13.94 4 19.88 4 26 C5.65 26 7.3 26 9 26 C9 26.99 9 27.98 9 29 C3.49461207 29.36702586 3.49461207 29.36702586 1.3190918 27.75268555 C-0.31737393 25.57830326 -0.35034179 24.46606412 -0.29296875 21.76953125 C-0.28330078 20.96708984 -0.27363281 20.16464844 -0.26367188 19.33789062 C-0.23853516 18.50451172 -0.21339844 17.67113281 -0.1875 16.8125 C-0.17396484 15.96751953 -0.16042969 15.12253906 -0.14648438 14.25195312 C-0.11115799 12.16769616 -0.05735139 10.08376723 0 8 C-0.99 8 -1.98 8 -3 8 C-3 7.01 -3 6.02 -3 5 C-2.01 5 -1.02 5 0 5 C0 3.35 0 1.7 0 0 Z " fill="#CDC7BF" transform="translate(509,242)"/>
<path d="M0 0 C1.32 0 2.64 0 4 0 C4 1.65 4 3.3 4 5 C5.65 5 7.3 5 9 5 C9 5.99 9 6.98 9 8 C7.35 8 5.7 8 4 8 C4 13.94 4 19.88 4 26 C5.65 26 7.3 26 9 26 C9 26.99 9 27.98 9 29 C3.49461207 29.36702586 3.49461207 29.36702586 1.3190918 27.75268555 C-0.31737393 25.57830326 -0.35034179 24.46606412 -0.29296875 21.76953125 C-0.28330078 20.96708984 -0.27363281 20.16464844 -0.26367188 19.33789062 C-0.23853516 18.50451172 -0.21339844 17.67113281 -0.1875 16.8125 C-0.17396484 15.96751953 -0.16042969 15.12253906 -0.14648438 14.25195312 C-0.11115799 12.16769616 -0.05735139 10.08376723 0 8 C-0.99 8 -1.98 8 -3 8 C-3 7.01 -3 6.02 -3 5 C-2.01 5 -1.02 5 0 5 C0 3.35 0 1.7 0 0 Z " fill="#D9D4CB" transform="translate(742,242)"/>
<path d="M0 0 C1.32 0 2.64 0 4 0 C4 1.65 4 3.3 4 5 C5.32 5 6.64 5 8 5 C8 5.99 8 6.98 8 8 C6.68 8 5.36 8 4 8 C4 13.94 4 19.88 4 26 C5.65 26 7.3 26 9 26 C9 26.99 9 27.98 9 29 C5.625 29.1875 5.625 29.1875 2 29 C-0.06723714 25.89914429 -0.24497423 25.27068319 -0.1953125 21.76953125 C-0.18886719 20.96708984 -0.18242187 20.16464844 -0.17578125 19.33789062 C-0.15902344 18.50451172 -0.14226562 17.67113281 -0.125 16.8125 C-0.11597656 15.96751953 -0.10695312 15.12253906 -0.09765625 14.25195312 C-0.07410703 12.16784757 -0.03823647 10.08388783 0 8 C-0.99 8 -1.98 8 -3 8 C-3 7.01 -3 6.02 -3 5 C-2.01 5 -1.02 5 0 5 C0 3.35 0 1.7 0 0 Z " fill="#E3DFD6" transform="translate(164,242)"/>
<path d="M0 0 C0.66 0 1.32 0 2 0 C2 5.94 2 11.88 2 18 C0.68 17.67 -0.64 17.34 -2 17 C-2.598125 17.33 -3.19625 17.66 -3.8125 18 C-7.12113636 19.51251948 -9.5302174 18.82013043 -13 18 C-14.9375 16.875 -14.9375 16.875 -16 15 C-16.4375 11.5 -16.4375 11.5 -16 8 C-13.06828386 4.48194063 -9.37834373 4.42099459 -5 4 C-4.01 5.485 -4.01 5.485 -3 7 C-5.64 7.66 -8.28 8.32 -11 9 C-11.33 10.32 -11.66 11.64 -12 13 C-11.34 13.66 -10.68 14.32 -10 15 C-5.49682877 14.64736215 -5.49682877 14.64736215 -2 12 C-1.70915044 9.99636969 -1.42383387 7.99077909 -1.21875 5.9765625 C-0.99118807 3.92037789 -0.5791598 1.98569073 0 0 Z " fill="#DFDAD1" transform="translate(599,253)"/>
<path d="M0 0 C0.99 0 1.98 0 3 0 C3 1.65 3 3.3 3 5 C7.95 5 12.9 5 18 5 C18 4.34 18 3.68 18 3 C18.66 3 19.32 3 20 3 C20 4.32 20 5.64 20 7 C14.39 7 8.78 7 3 7 C3.99 8.98 4.98 10.96 6 13 C6 13.66 6 14.32 6 15 C9.37464024 15.2503577 9.37464024 15.2503577 13 15 C14.66710346 13.50014391 14.66710346 13.50014391 16 12 C18.1875 12.3125 18.1875 12.3125 20 13 C19 16 19 16 17 17.75 C12.7972641 19.50113996 9.35418831 19.21266179 5 18 C2.00547566 15.75410675 1.18376878 14.55130633 0 11 C-0.0685495 9.10529184 -0.08480372 7.2083166 -0.0625 5.3125 C-0.05347656 4.31863281 -0.04445313 3.32476562 -0.03515625 2.30078125 C-0.02355469 1.54152344 -0.01195312 0.78226563 0 0 Z " fill="#DFDAD1" transform="translate(792,253)"/>
<path d="M0 0 C0.99 0 1.98 0 3 0 C3 1.65 3 3.3 3 5 C7.95 5 12.9 5 18 5 C18 4.34 18 3.68 18 3 C18.66 3 19.32 3 20 3 C20 4.32 20 5.64 20 7 C14.39 7 8.78 7 3 7 C3.99 8.98 4.98 10.96 6 13 C6 13.66 6 14.32 6 15 C9.37464024 15.2503577 9.37464024 15.2503577 13 15 C14.66710346 13.50014391 14.66710346 13.50014391 16 12 C18.1875 12.3125 18.1875 12.3125 20 13 C19 16 19 16 17 17.75 C12.7972641 19.50113996 9.35418831 19.21266179 5 18 C2.00547566 15.75410675 1.18376878 14.55130633 0 11 C-0.0685495 9.10529184 -0.08480372 7.2083166 -0.0625 5.3125 C-0.05347656 4.31863281 -0.04445313 3.32476562 -0.03515625 2.30078125 C-0.02355469 1.54152344 -0.01195312 0.78226563 0 0 Z " fill="#DEDAD1" transform="translate(521,253)"/>
<path d="M0 0 C0.33 1.32 0.66 2.64 1 4 C5.95 4 10.9 4 16 4 C16 2.68 16 1.36 16 0 C16.66 0 17.32 0 18 0 C18.33 1.98 18.66 3.96 19 6 C13.39 6 7.78 6 2 6 C4.02542459 12.85921354 4.02542459 12.85921354 7.375 14.125 C10.65069337 13.9690146 12.29118218 12.78211699 15 11 C15.99 11 16.98 11 18 11 C17.8125 12.8125 17.8125 12.8125 17 15 C14.33712754 17.13029797 12.43811195 17.93474928 9.0625 18.4375 C5.1875574 17.88393677 3.04574652 16.40826469 0 14 C-1.24377393 11.51245214 -1.13306235 9.77344699 -1.125 7 C-1.12757813 6.113125 -1.13015625 5.22625 -1.1328125 4.3125 C-1 2 -1 2 0 0 Z " fill="#D8D3CA" transform="translate(633,254)"/>
<path d="M0 0 C0.33 1.32 0.66 2.64 1 4 C5.95 4 10.9 4 16 4 C16 2.68 16 1.36 16 0 C16.66 0 17.32 0 18 0 C18.33 1.98 18.66 3.96 19 6 C13.39 6 7.78 6 2 6 C4.02542459 12.85921354 4.02542459 12.85921354 7.375 14.125 C10.65069337 13.9690146 12.29118218 12.78211699 15 11 C15.99 11 16.98 11 18 11 C17.8125 12.8125 17.8125 12.8125 17 15 C14.33712754 17.13029797 12.43811195 17.93474928 9.0625 18.4375 C5.1875574 17.88393677 3.04574652 16.40826469 0 14 C-1.24377393 11.51245214 -1.13306235 9.77344699 -1.125 7 C-1.12757813 6.113125 -1.13015625 5.22625 -1.1328125 4.3125 C-1 2 -1 2 0 0 Z " fill="#D7D2CA" transform="translate(384,254)"/>
<path d="M0 0 C3.42652433 0.7405309 4.82713947 1.79288754 7.1328125 4.4609375 C7.75082818 7.89579559 7.6035162 11.23532397 7.4453125 14.7109375 C7.42275391 15.64679688 7.40019531 16.58265625 7.37695312 17.546875 C7.31811845 19.85319424 7.23598396 22.15624588 7.1328125 24.4609375 C6.1428125 24.4609375 5.1528125 24.4609375 4.1328125 24.4609375 C2.4453125 22.4609375 2.4453125 22.4609375 1.1328125 20.4609375 C1.7928125 19.4709375 2.4528125 18.4809375 3.1328125 17.4609375 C3.51781141 15.80544219 3.86074385 14.1386942 4.1328125 12.4609375 C3.1428125 12.1309375 2.1528125 11.8009375 1.1328125 11.4609375 C1.4628125 11.1309375 1.7928125 10.8009375 2.1328125 10.4609375 C2.29947917 7.9609375 2.29947917 7.9609375 2.1328125 5.4609375 C1.02114386 4.12905957 1.02114386 4.12905957 -1.8046875 4.2734375 C-4.97611609 4.12815017 -4.97611609 4.12815017 -6.8671875 6.4609375 C-8.1871875 6.4609375 -9.5071875 6.4609375 -10.8671875 6.4609375 C-8.5269557 1.06040258 -5.76821291 0.24882487 0 0 Z " fill="#DED8CF" transform="translate(889.8671875,246.5390625)"/>
<path d="M0 0 C3.42652433 0.7405309 4.82713947 1.79288754 7.1328125 4.4609375 C7.75082818 7.89579559 7.6035162 11.23532397 7.4453125 14.7109375 C7.42275391 15.64679688 7.40019531 16.58265625 7.37695312 17.546875 C7.31811845 19.85319424 7.23598396 22.15624588 7.1328125 24.4609375 C6.1428125 24.4609375 5.1528125 24.4609375 4.1328125 24.4609375 C2.4453125 22.4609375 2.4453125 22.4609375 1.1328125 20.4609375 C1.7928125 19.4709375 2.4528125 18.4809375 3.1328125 17.4609375 C3.51781141 15.80544219 3.86074385 14.1386942 4.1328125 12.4609375 C3.1428125 12.1309375 2.1528125 11.8009375 1.1328125 11.4609375 C1.4628125 11.1309375 1.7928125 10.8009375 2.1328125 10.4609375 C2.29947917 7.9609375 2.29947917 7.9609375 2.1328125 5.4609375 C1.02114386 4.12905957 1.02114386 4.12905957 -1.8046875 4.2734375 C-4.97611609 4.12815017 -4.97611609 4.12815017 -6.8671875 6.4609375 C-8.1871875 6.4609375 -9.5071875 6.4609375 -10.8671875 6.4609375 C-8.5269557 1.06040258 -5.76821291 0.24882487 0 0 Z " fill="#DDD8CF" transform="translate(355.8671875,246.5390625)"/>
<path d="M0 0 C0.33 0.99 0.66 1.98 1 3 C5.95 3 10.9 3 16 3 C16 2.01 16 1.02 16 0 C16.66 0 17.32 0 18 0 C18 1.65 18 3.3 18 5 C12.72 5 7.44 5 2 5 C2.99 7.31 3.98 9.62 5 12 C7.89072953 13.32908167 7.89072953 13.32908167 11 13 C13.17032476 11.56009377 13.17032476 11.56009377 15 10 C15.99 10.33 16.98 10.66 18 11 C17.05275873 13.36810318 16.34708866 14.75207953 14.25 16.25 C11.25035738 17.24988087 9.15310017 17.37837202 6 17 C0.42105263 13.84210526 0.42105263 13.84210526 -1 11 C-1.09534254 9.3146804 -1.12985758 7.62550734 -1.125 5.9375 C-1.12757813 5.03902344 -1.13015625 4.14054687 -1.1328125 3.21484375 C-1 1 -1 1 0 0 Z " fill="#D8D3CB" transform="translate(473,255)"/>
<path d="M0 0 C1.32 0 2.64 0 4 0 C4 10.56 4 21.12 4 32 C2.68 32 1.36 32 0 32 C0 21.44 0 10.88 0 0 Z " fill="#D1CCC4" transform="translate(299,239)"/>
<path d="M0 0 C2.475 0.495 2.475 0.495 5 1 C5.33 0.67 5.66 0.34 6 0 C7.99958364 -0.04080783 10.00045254 -0.04254356 12 0 C12 0.99 12 1.98 12 3 C11.030625 3.309375 10.06125 3.61875 9.0625 3.9375 C6.15934208 4.69523342 6.15934208 4.69523342 5 6 C4.84417697 7.34015221 4.74955858 8.68758903 4.68359375 10.03515625 C4.64169922 10.84404297 4.59980469 11.65292969 4.55664062 12.48632812 C4.51732422 13.33646484 4.47800781 14.18660156 4.4375 15.0625 C4.39431641 15.91650391 4.35113281 16.77050781 4.30664062 17.65039062 C4.20023298 19.76672037 4.09958269 21.88333813 4 24 C2.68 24 1.36 24 0 24 C0 16.08 0 8.16 0 0 Z " fill="#E0DBD2" transform="translate(765,247)"/>
<path d="M0 0 C1.12440511 3.37321532 1.3032481 6.41258137 1.5234375 9.94140625 C1.84250404 12.39009226 1.84250404 12.39009226 5 14 C7.58333333 13.91666667 7.58333333 13.91666667 10 13 C12.02350324 9.96474514 12.32124018 8.80573798 12.625 5.3125 C12.69976562 4.50425781 12.77453125 3.69601562 12.8515625 2.86328125 C12.90054687 2.24839844 12.94953125 1.63351563 13 1 C13.33 1 13.66 1 14 1 C14.33 2.98 14.66 4.96 15 7 C15.33 7 15.66 7 16 7 C16 9.31 16 11.62 16 14 C15.34 14 14.68 14 14 14 C14 17.96 14 21.92 14 26 C13.67 26 13.34 26 13 26 C12.505 21.05 12.505 21.05 12 16 C11.01 16.66 10.02 17.32 9 18 C5.12012424 17.85891361 2.77504418 17.60746706 -0.3125 15.1875 C-4.0977272 10.280724 -4.20391082 7.1173245 -4 1 C-3.67 1 -3.34 1 -3 1 C-2.67 2.65 -2.34 4.3 -2 6 C-1.34 4.02 -0.68 2.04 0 0 Z " fill="#DFDBD2" transform="translate(423,254)"/>
<path d="M0 0 C3.42652433 0.7405309 4.82713947 1.79288754 7.1328125 4.4609375 C7.75082818 7.89579559 7.6035162 11.23532397 7.4453125 14.7109375 C7.42275391 15.64679688 7.40019531 16.58265625 7.37695312 17.546875 C7.31811845 19.85319424 7.23598396 22.15624588 7.1328125 24.4609375 C6.4728125 24.4609375 5.8128125 24.4609375 5.1328125 24.4609375 C5.1328125 20.5009375 5.1328125 16.5409375 5.1328125 12.4609375 C3.1528125 12.4609375 1.1728125 12.4609375 -0.8671875 12.4609375 C0.1328125 10.4609375 0.1328125 10.4609375 3.1328125 9.4609375 C3.1328125 8.1409375 3.1328125 6.8209375 3.1328125 5.4609375 C0.37031214 4.07968732 -1.81449849 4.27014444 -4.8671875 4.4609375 C-5.5271875 5.1209375 -6.1871875 5.7809375 -6.8671875 6.4609375 C-7.8571875 6.4609375 -8.8471875 6.4609375 -9.8671875 6.4609375 C-9.5546875 4.5859375 -9.5546875 4.5859375 -8.8671875 2.4609375 C-5.67500612 0.33281658 -3.76299318 0.1623252 0 0 Z " fill="#E8E3DA" transform="translate(935.8671875,246.5390625)"/>
<path d="M0 0 C3.42652433 0.7405309 4.82713947 1.79288754 7.1328125 4.4609375 C7.75082818 7.89579559 7.6035162 11.23532397 7.4453125 14.7109375 C7.42275391 15.64679688 7.40019531 16.58265625 7.37695312 17.546875 C7.31811845 19.85319424 7.23598396 22.15624588 7.1328125 24.4609375 C6.4728125 24.4609375 5.8128125 24.4609375 5.1328125 24.4609375 C5.1328125 20.5009375 5.1328125 16.5409375 5.1328125 12.4609375 C3.1528125 12.4609375 1.1728125 12.4609375 -0.8671875 12.4609375 C0.1328125 10.4609375 0.1328125 10.4609375 3.1328125 9.4609375 C3.1328125 8.1409375 3.1328125 6.8209375 3.1328125 5.4609375 C0.37031214 4.07968732 -1.81449849 4.27014444 -4.8671875 4.4609375 C-5.5271875 5.1209375 -6.1871875 5.7809375 -6.8671875 6.4609375 C-7.8571875 6.4609375 -8.8471875 6.4609375 -9.8671875 6.4609375 C-9.5546875 4.5859375 -9.5546875 4.5859375 -8.8671875 2.4609375 C-5.67500612 0.33281658 -3.76299318 0.1623252 0 0 Z " fill="#E9E5DC" transform="translate(211.8671875,246.5390625)"/>
<path d="M0 0 C0.99 0 1.98 0 3 0 C3.33 0.66 3.66 1.32 4 2 C4.66 1.34 5.32 0.68 6 0 C8.625 -0.125 8.625 -0.125 11 0 C11 0.99 11 1.98 11 3 C7.535 4.485 7.535 4.485 4 6 C3.67 11.94 3.34 17.88 3 24 C2.01 24 1.02 24 0 24 C0 16.08 0 8.16 0 0 Z " fill="#DCD7CF" transform="translate(138,247)"/>
<path d="M0 0 C1.32 0 2.64 0 4 0 C4 7.92 4 15.84 4 24 C2.68 24 1.36 24 0 24 C0 16.08 0 8.16 0 0 Z " fill="#D3CDC5" transform="translate(755,247)"/>
<path d="M0 0 C1.32 0 2.64 0 4 0 C4 7.92 4 15.84 4 24 C3.01 24 2.02 24 1 24 C1 23.01 1 22.02 1 21 C0.34 20.67 -0.32 20.34 -1 20 C-0.67 13.4 -0.34 6.8 0 0 Z " fill="#D2CDC4" transform="translate(462,247)"/>
<path d="M0 0 C1.32 0 2.64 0 4 0 C4 7.92 4 15.84 4 24 C3.01 24 2.02 24 1 24 C1 23.01 1 22.02 1 21 C0.34 20.67 -0.32 20.34 -1 20 C-0.67 13.4 -0.34 6.8 0 0 Z " fill="#D2CDC4" transform="translate(192,247)"/>
<path d="M0 0 C0.99 0 1.98 0 3 0 C3 10.23 3 20.46 3 31 C2.01 31 1.02 31 0 31 C0 20.77 0 10.54 0 0 Z " fill="#EAE6DD" transform="translate(226,240)"/>
<path d="M0 0 C0.99 0 1.98 0 3 0 C3 10.23 3 20.46 3 31 C2.01 31 1.02 31 0 31 C0 20.77 0 10.54 0 0 Z " fill="#EAE6DD" transform="translate(116,240)"/>
<path d="M0 0 C-0.60220994 6.38342541 -0.60220994 6.38342541 -2.25 8.9375 C-4.68310899 10.41474475 -6.20342824 10.41948576 -9 10 C-10.8125 8.75 -10.8125 8.75 -12 7 C-12 5.68 -12 4.36 -12 3 C-8.2080182 0.81231819 -4.37268114 0 0 0 Z " fill="#3D3027" transform="translate(940,259)"/>
<path d="M0 0 C-0.60220994 6.38342541 -0.60220994 6.38342541 -2.25 8.9375 C-4.68310899 10.41474475 -6.20342824 10.41948576 -9 10 C-10.8125 8.75 -10.8125 8.75 -12 7 C-12 5.68 -12 4.36 -12 3 C-8.2080182 0.81231819 -4.37268114 0 0 0 Z " fill="#352D27" transform="translate(216,259)"/>
<path d="M0 0 C0.3125 2.75 0.3125 2.75 0 6 C-2.1875 8.4375 -2.1875 8.4375 -5 10 C-8.42333251 9.84077523 -9.5631237 9.4368763 -12 7 C-11.8125 5 -11.8125 5 -11 3 C-7.48731871 0.65821247 -4.24893746 0 0 0 Z " fill="#352A23" transform="translate(598,259)"/>
<path d="M0 0 C0.66 0 1.32 0 2 0 C2 3.63 2 7.26 2 11 C2.66 11 3.32 11 4 11 C3.67 17.6 3.34 24.2 3 31 C2.01 31 1.02 31 0 31 C0 20.77 0 10.54 0 0 Z " fill="#EAE6DD" transform="translate(559,240)"/>
<path d="M0 0 C-0.25 3.375 -0.25 3.375 -1 7 C-2.75 8.5 -2.75 8.5 -5 9 C-9.52631579 8.47368421 -9.52631579 8.47368421 -11 7 C-11.04063832 5.33382885 -11.042721 3.66611905 -11 2 C-7.17010894 0.19769832 -4.21878192 -0.19622241 0 0 Z " fill="#362920" transform="translate(893,260)"/>
<path d="M0 0 C-0.25 3.375 -0.25 3.375 -1 7 C-2.75 8.5 -2.75 8.5 -5 9 C-9.52631579 8.47368421 -9.52631579 8.47368421 -11 7 C-11.04063832 5.33382885 -11.042721 3.66611905 -11 2 C-7.17010894 0.19769832 -4.21878192 -0.19622241 0 0 Z " fill="#302721" transform="translate(359,260)"/>
<path d="M0 0 C0.66 0 1.32 0 2 0 C2 10.23 2 20.46 2 31 C1.34 31 0.68 31 0 31 C-0.33474144 28.20849551 -0.66785498 25.41681356 -1 22.625 C-1.09539062 21.8309375 -1.19078125 21.036875 -1.2890625 20.21875 C-2 14.2265625 -2 14.2265625 -2 12 C-1.34 12 -0.68 12 0 12 C0 8.04 0 4.08 0 0 Z " fill="#F2EEE5" transform="translate(265,240)"/>
<path d="M0 0 C3.4375 0.75 3.4375 0.75 5.4375 2.75 C5.4375 4.07 5.4375 5.39 5.4375 6.75 C1.1475 6.75 -3.1425 6.75 -7.5625 6.75 C-7.2325 5.1 -6.9025 3.45 -6.5625 1.75 C-3.5625 -0.25 -3.5625 -0.25 0 0 Z " fill="#332820" transform="translate(642.5625,250.25)"/>
<path d="M0 0 C3.4375 0.75 3.4375 0.75 5.4375 2.75 C5.4375 4.07 5.4375 5.39 5.4375 6.75 C1.1475 6.75 -3.1425 6.75 -7.5625 6.75 C-7.2325 5.1 -6.9025 3.45 -6.5625 1.75 C-3.5625 -0.25 -3.5625 -0.25 0 0 Z " fill="#302720" transform="translate(393.5625,250.25)"/>
<path d="M0 0 C1.875 1.25 1.875 1.25 3 3 C3 4.32 3 5.64 3 7 C-1.29 7 -5.58 7 -10 7 C-8.44026415 0.76105658 -6.52522079 -0.8156526 0 0 Z " fill="#33271F" transform="translate(704,250)"/>
<path d="M0 0 C0.66 1.98 1.32 3.96 2 6 C-2.29 6 -6.58 6 -11 6 C-10.67 4.35 -10.34 2.7 -10 1 C-6.1496895 -1.56687367 -4.41430237 -0.83288724 0 0 Z " fill="#30261F" transform="translate(486,251)"/>
<path d="M0 0 C0.66 1.98 1.32 3.96 2 6 C-2.29 6 -6.58 6 -11 6 C-10.67 4.35 -10.34 2.7 -10 1 C-6.1496895 -1.56687367 -4.41430237 -0.83288724 0 0 Z " fill="#2E261F" transform="translate(288,251)"/>
<path d="M0 0 C3.0625 0.3125 3.0625 0.3125 4.875 1.5625 C6.0625 3.3125 6.0625 3.3125 7.0625 7.3125 C2.7725 7.3125 -1.5175 7.3125 -5.9375 7.3125 C-4.57228261 0.48641304 -4.57228261 0.48641304 0 0 Z " fill="#32261D" transform="translate(801.9375,249.6875)"/>
<path d="M0 0 C3.0625 0.3125 3.0625 0.3125 4.875 1.5625 C6.0625 3.3125 6.0625 3.3125 7.0625 7.3125 C2.7725 7.3125 -1.5175 7.3125 -5.9375 7.3125 C-4.57228261 0.48641304 -4.57228261 0.48641304 0 0 Z " fill="#2F251D" transform="translate(530.9375,249.6875)"/>
<path d="M0 0 C1.32 0 2.64 0 4 0 C4 10.56 4 21.12 4 32 C3.67 32 3.34 32 3 32 C3 21.77 3 11.54 3 1 C2.34 1 1.68 1 1 1 C1 4.96 1 8.92 1 13 C0.01 13.33 -0.98 13.66 -2 14 C-2.66 13.34 -3.32 12.68 -4 12 C-6.32275177 11.59952556 -8.65739357 11.2602896 -11 11 C-10.67 10.34 -10.34 9.68 -10 9 C-3.84765625 8.90234375 -3.84765625 8.90234375 -2 9 C-1.67 9.33 -1.34 9.66 -1 10 C-0.67 6.7 -0.34 3.4 0 0 Z " fill="#B9B3AB" transform="translate(264,239)"/>
<path d="M0 0 C0.99 0 1.98 0 3 0 C3 7.92 3 15.84 3 24 C2.01 24 1.02 24 0 24 C0 16.08 0 8.16 0 0 Z " fill="#E8E4DB" transform="translate(154,247)"/>
<path d="M0 0 C0.2475 0.5775 0.495 1.155 0.75 1.75 C2.24553329 4.44195992 3.52513927 6.14385446 6 8 C9.79920785 7.84169967 12.71996138 6.89232997 16 5 C16 6.32 16 7.64 16 9 C13.36752769 11.16791837 11.43395916 11.93536779 8.0625 12.4375 C4.22776533 11.88968076 2.04981981 10.32367223 -1 8 C-0.67 5.36 -0.34 2.72 0 0 Z " fill="#D8D3CB" transform="translate(276,260)"/>
<path d="M0 0 C0.66 0.99 1.32 1.98 2 3 C3.25 4.75 3.25 4.75 5 6 C8.12414314 6.31241431 9.99825776 6.00058075 13 5 C13 4.34 13 3.68 13 3 C14.32 3.33 15.64 3.66 17 4 C13.25 8.875 13.25 8.875 11 10 C6.66228959 10.50050505 3.9807299 10.39123054 0.5625 7.6875 C-2 5 -2 5 -2 2 C-1.34 2 -0.68 2 0 2 C0 1.34 0 0.68 0 0 Z " fill="#D9D4CB" transform="translate(694,262)"/>
<path d="M0 0 C0.66 0 1.32 0 2 0 C2 0.99 2 1.98 2 3 C2.66 3 3.32 3 4 3 C3.67 9.6 3.34 16.2 3 23 C2.01 23 1.02 23 0 23 C0 15.41 0 7.82 0 0 Z " fill="#EAE6DD" transform="translate(818,248)"/>
<path d="M0 0 C0.66 0 1.32 0 2 0 C2 0.99 2 1.98 2 3 C2.66 3 3.32 3 4 3 C3.67 9.6 3.34 16.2 3 23 C2.01 23 1.02 23 0 23 C0 15.41 0 7.82 0 0 Z " fill="#EAE6DD" transform="translate(717,248)"/>
<path d="M0 0 C0.33 1.32 0.66 2.64 1 4 C5.95 4 10.9 4 16 4 C16 2.68 16 1.36 16 0 C16.66 0 17.32 0 18 0 C18.33 1.98 18.66 3.96 19 6 C13.06 6 7.12 6 1 6 C1 7.65 1 9.3 1 11 C0.01 11.495 0.01 11.495 -1 12 C-1.02698189 10.37509046 -1.04638757 8.75005367 -1.0625 7.125 C-1.07410156 6.22007812 -1.08570313 5.31515625 -1.09765625 4.3828125 C-1 2 -1 2 0 0 Z " fill="#F2EDE4" transform="translate(633,254)"/>
<path d="M0 0 C0.33 1.32 0.66 2.64 1 4 C5.95 4 10.9 4 16 4 C16 2.68 16 1.36 16 0 C16.66 0 17.32 0 18 0 C18.33 1.98 18.66 3.96 19 6 C13.06 6 7.12 6 1 6 C1 7.65 1 9.3 1 11 C0.01 11.495 0.01 11.495 -1 12 C-1.02698189 10.37509046 -1.04638757 8.75005367 -1.0625 7.125 C-1.07410156 6.22007812 -1.08570313 5.31515625 -1.09765625 4.3828125 C-1 2 -1 2 0 0 Z " fill="#F1EDE4" transform="translate(384,254)"/>
<path d="M0 0 C2.875 1.25 2.875 1.25 5 3 C5.8125 5.1875 5.8125 5.1875 6 7 C4.68 7 3.36 7 2 7 C1.566875 6.484375 1.13375 5.96875 0.6875 5.4375 C-1.09156443 3.58860989 -1.09156443 3.58860989 -4.625 4.1875 C-6.295625 4.5896875 -6.295625 4.5896875 -8 5 C-8.33 5.66 -8.66 6.32 -9 7 C-9.99 7 -10.98 7 -12 7 C-11.64393309 4.41851492 -11.16671807 3.17954253 -9.375 1.25 C-6.05074069 -0.49961016 -3.71021118 -0.39054855 0 0 Z " fill="#DAD5CC" transform="translate(621,247)"/>
<path d="M0 0 C0.33 0 0.66 0 1 0 C1.3125 2.25 1.3125 2.25 1 5 C-1.74014391 8.07228257 -3.41203241 8.91600463 -7.5 9.5 C-11.54347727 8.92236039 -13.21679254 7.9518867 -16 5 C-16 4.01 -16 3.02 -16 2 C-14.68 2.33 -13.36 2.66 -12 3 C-12 3.66 -12 4.32 -12 5 C-8.71000718 5.41831404 -8.71000718 5.41831404 -5 5 C-2.12359384 2.62499209 -2.12359384 2.62499209 0 0 Z " fill="#DCD7CE" transform="translate(919,263)"/>
<path d="M0 0 C5.98654709 -0.59865471 5.98654709 -0.59865471 8.765625 1.04296875 C10.93510476 2.83858185 12.73071964 4.46143928 14 7 C14.039992 8.99960012 14.04346799 11.00047242 14 13 C13.67 13 13.34 13 13 13 C13 11.35 13 9.7 13 8 C12.34 8 11.68 8 11 8 C11 8.99 11 9.98 11 11 C6.05 11 1.1 11 -4 11 C-3.67 10.01 -3.34 9.02 -3 8 C-3 8.66 -3 9.32 -3 10 C1.29 10 5.58 10 10 10 C8.64874645 4.96068613 8.64874645 4.96068613 5.5625 3.875 C4.2940625 3.441875 4.2940625 3.441875 3 3 C1.1875 1.375 1.1875 1.375 0 0 Z " fill="#CCC7BF" transform="translate(280,247)"/>
<path d="M0 0 C0.33 0.99 0.66 1.98 1 3 C5.95 3 10.9 3 16 3 C16 2.01 16 1.02 16 0 C16.66 0 17.32 0 18 0 C18 1.65 18 3.3 18 5 C12.39 5 6.78 5 1 5 C1 6.65 1 8.3 1 10 C0.01 10.495 0.01 10.495 -1 11 C-1.02688151 9.35425434 -1.04634123 7.70838587 -1.0625 6.0625 C-1.07410156 5.14597656 -1.08570313 4.22945313 -1.09765625 3.28515625 C-1 1 -1 1 0 0 Z " fill="#F3EFE6" transform="translate(473,255)"/>
<path d="M0 0 C2.5 2 2.5 2 4 4 C3.34 5.65 2.68 7.3 2 9 C1.690625 8.360625 1.38125 7.72125 1.0625 7.0625 C0.1654837 5.06389179 0.1654837 5.06389179 -1 4 C-3.95817107 3.74994614 -3.95817107 3.74994614 -7 4 C-7.66 4.66 -8.32 5.32 -9 6 C-10.32 6 -11.64 6 -13 6 C-10.41798481 0.0415034 -6.20362858 -1.07346491 0 0 Z " fill="#D6D1C8" transform="translate(892,247)"/>
<path d="M0 0 C2.5 2 2.5 2 4 4 C3.34 5.65 2.68 7.3 2 9 C1.690625 8.360625 1.38125 7.72125 1.0625 7.0625 C0.1654837 5.06389179 0.1654837 5.06389179 -1 4 C-3.95817107 3.74994614 -3.95817107 3.74994614 -7 4 C-7.66 4.66 -8.32 5.32 -9 6 C-10.32 6 -11.64 6 -13 6 C-10.41798481 0.0415034 -6.20362858 -1.07346491 0 0 Z " fill="#D5D0C8" transform="translate(358,247)"/>
<path d="M0 0 C0.99 0.495 0.99 0.495 2 1 C2.31241455 3.71446979 2.51336592 6.33909361 2.625 9.0625 C2.66367187 9.82111328 2.70234375 10.57972656 2.7421875 11.36132812 C2.83673562 13.24047195 2.91946756 15.12020336 3 17 C4.65 17.33 6.3 17.66 8 18 C8 18.99 8 19.98 8 21 C5.125 21.125 5.125 21.125 2 21 C0 19 0 19 -0.22705078 17.02880859 C-0.21657715 16.24328613 -0.20610352 15.45776367 -0.1953125 14.6484375 C-0.18886719 13.79765625 -0.18242187 12.946875 -0.17578125 12.0703125 C-0.15902344 11.18085938 -0.14226562 10.29140625 -0.125 9.375 C-0.11597656 8.4778125 -0.10695313 7.580625 -0.09765625 6.65625 C-0.0740497 4.43723414 -0.0411231 2.21874923 0 0 Z " fill="#F0ECE3" transform="translate(510,250)"/>
<path d="M0 0 C0.66 0 1.32 0 2 0 C2 1.65 2 3.3 2 5 C6.95 5 11.9 5 17 5 C17 4.34 17 3.68 17 3 C17.66 3 18.32 3 19 3 C19 4.32 19 5.64 19 7 C13.06 7 7.12 7 1 7 C0.67 7.99 0.34 8.98 0 10 C0 6.7 0 3.4 0 0 Z " fill="#F3EFE6" transform="translate(793,253)"/>
<path d="M0 0 C0.66 0 1.32 0 2 0 C2 1.65 2 3.3 2 5 C6.95 5 11.9 5 17 5 C17 4.34 17 3.68 17 3 C17.66 3 18.32 3 19 3 C19 4.32 19 5.64 19 7 C13.06 7 7.12 7 1 7 C0.67 7.99 0.34 8.98 0 10 C0 6.7 0 3.4 0 0 Z " fill="#F3EFE6" transform="translate(522,253)"/>
<path d="M0 0 C2.475 0.495 2.475 0.495 5 1 C5.33 0.67 5.66 0.34 6 0 C7.99958364 -0.04080783 10.00045254 -0.04254356 12 0 C12 0.99 12 1.98 12 3 C5.25 5.125 5.25 5.125 3 4 C3 3.01 3 2.02 3 1 C2.34 1 1.68 1 1 1 C1 8.59 1 16.18 1 24 C0.67 24 0.34 24 0 24 C0 16.08 0 8.16 0 0 Z " fill="#C9C3BB" transform="translate(765,247)"/>
<path d="M0 0 C0 0.33 0 0.66 0 1 C-1.0725 1 -2.145 1 -3.25 1 C-6.98641311 1.57686175 -6.98641311 1.57686175 -8.35546875 3.84765625 C-9.33530725 5.85331845 -10.1766591 7.92518094 -11 10 C-6.71 10 -2.42 10 2 10 C2.33 9.34 2.66 8.68 3 8 C3 8.99 3 9.98 3 11 C0.54159395 11.02691685 -1.91651882 11.04679802 -4.375 11.0625 C-5.07367187 11.07087891 -5.77234375 11.07925781 -6.4921875 11.08789062 C-11.7734375 11.11328125 -11.7734375 11.11328125 -14 10 C-13.74919159 6.32147666 -13.38558753 4.44400988 -10.9375 1.625 C-6.98286986 -0.56266774 -4.47232658 -0.30320858 0 0 Z " fill="#C9C4BB" transform="translate(705,247)"/>
<path d="M0 0 C2.5 1.875 2.5 1.875 4 4 C4 4.66 4 5.32 4 6 C0.125 5.125 0.125 5.125 -1 4 C-5.14276875 3.75266863 -5.14276875 3.75266863 -9 5 C-9.99 4.34 -10.98 3.68 -12 3 C-8.45948915 -0.54051085 -4.76270867 -0.90764735 0 0 Z " fill="#E0DBD2" transform="translate(916,247)"/>
<path d="M0 0 C0.66 0.33 1.32 0.66 2 1 C1.01 3.64 0.02 6.28 -1 9 C3.29 9 7.58 9 12 9 C12.33 8.34 12.66 7.68 13 7 C13 7.99 13 8.98 13 10 C8.05 10 3.1 10 -2 10 C-2.33 9.34 -2.66 8.68 -3 8 C-3.33 10.64 -3.66 13.28 -4 16 C-4.33 16 -4.66 16 -5 16 C-5.76681614 7.37757848 -5.76681614 7.37757848 -3.88671875 4 C-2.5 2.375 -2.5 2.375 0 0 Z " fill="#C1BBB3" transform="translate(636,248)"/>
<path d="M0 0 C0.66 0.33 1.32 0.66 2 1 C1.01 3.64 0.02 6.28 -1 9 C3.29 9 7.58 9 12 9 C12.33 8.34 12.66 7.68 13 7 C13 7.99 13 8.98 13 10 C8.05 10 3.1 10 -2 10 C-2.33 9.34 -2.66 8.68 -3 8 C-3.33 10.64 -3.66 13.28 -4 16 C-4.33 16 -4.66 16 -5 16 C-5.76681614 7.37757848 -5.76681614 7.37757848 -3.88671875 4 C-2.5 2.375 -2.5 2.375 0 0 Z " fill="#C1BBB3" transform="translate(387,248)"/>
<path d="M0 0 C3.05325385 -0.2935821 5.95525026 -0.42375383 9 0 C11.625 2.25 11.625 2.25 13 5 C12.875 7.25 12.875 7.25 12 9 C11.01 9.495 11.01 9.495 10 10 C9.525625 9.030625 9.05125 8.06125 8.5625 7.0625 C7.29806053 4.19522563 7.29806053 4.19522563 6 3 C3.66702567 2.95907063 1.33294775 2.95758277 -1 3 C-0.67 2.01 -0.34 1.02 0 0 Z " fill="#E2DDD4" transform="translate(698,248)"/>
<path d="M0 0 C0 0.99 0 1.98 0 3 C-1.65 3.33 -3.3 3.66 -5 4 C-5.33 5.65 -5.66 7.3 -6 9 C-4.35 9 -2.7 9 -1 9 C-1.33 9.99 -1.66 10.98 -2 12 C-2 11.34 -2 10.68 -2 10 C-3.65 10 -5.3 10 -7 10 C-7.33 8.35 -7.66 6.7 -8 5 C-8.66 6.32 -9.32 7.64 -10 9 C-10.35789474 3.63157895 -10.35789474 3.63157895 -8.9375 1.125 C-5.99772876 -0.58196395 -3.32129197 -0.18799766 0 0 Z " fill="#D0CBC3" transform="translate(381,238)"/>
<path d="M0 0 C0.33 0 0.66 0 1 0 C1.33 1.98 1.66 3.96 2 6 C2.33 6 2.66 6 3 6 C3 8.31 3 10.62 3 13 C2.34 13 1.68 13 1 13 C1 16.96 1 20.92 1 25 C0.67 25 0.34 25 0 25 C-0.07347656 23.84371094 -0.07347656 23.84371094 -0.1484375 22.6640625 C-0.22320312 21.66117187 -0.29796875 20.65828125 -0.375 19.625 C-0.44460938 18.62726563 -0.51421875 17.62953125 -0.5859375 16.6015625 C-0.76363964 13.84491121 -0.76363964 13.84491121 -3 12 C-2.34 11.01 -1.68 10.02 -1 9 C-0.54605448 6.72087062 -0.54605448 6.72087062 -0.375 4.3125 C-0.30023438 3.50425781 -0.22546875 2.69601562 -0.1484375 1.86328125 C-0.09945313 1.24839844 -0.05046875 0.63351563 0 0 Z " fill="#C0BBB2" transform="translate(436,255)"/>
<path d="M0 0 C0.33 0 0.66 0 1 0 C1 5.94 1 11.88 1 18 C2.65 18 4.3 18 6 18 C6 18.99 6 19.98 6 21 C3.69 21 1.38 21 -1 21 C-1.33 19.35 -1.66 17.7 -2 16 C-1.34 16 -0.68 16 0 16 C0 10.72 0 5.44 0 0 Z " fill="#BDB8B0" transform="translate(167,250)"/>
<path d="M0 0 C0.33 0.99 0.66 1.98 1 3 C1.66 3 2.32 3 3 3 C2.67 9.6 2.34 16.2 2 23 C1.34 23 0.68 23 0 23 C0 15.41 0 7.82 0 0 Z " fill="#F0ECE3" transform="translate(139,248)"/>
<path d="M0 0 C0 0.33 0 0.66 0 1 C-1.98 1.33 -3.96 1.66 -6 2 C-5.67 2.66 -5.34 3.32 -5 4 C-5.928125 4.7734375 -5.928125 4.7734375 -6.875 5.5625 C-9.47476742 8.54458615 -10.11949123 11.18446201 -11 15 C-11.33 15 -11.66 15 -12 15 C-12.77162899 6.16913484 -12.77162899 6.16913484 -9.9375 1.875 C-6.35870823 -0.40933517 -4.16952449 -0.40877691 0 0 Z " fill="#D6D2C9" transform="translate(260,247)"/>
<path d="M0 0 C0.66 0.66 1.32 1.32 2 2 C0.14375 2.309375 0.14375 2.309375 -1.75 2.625 C-5.4583749 3.51763537 -5.92273376 3.90094072 -8.4375 7.125 C-8.953125 8.07375 -9.46875 9.0225 -10 10 C-10.33 10 -10.66 10 -11 10 C-11.25 6.6875 -11.25 6.6875 -11 3 C-7.75212317 -0.35987259 -4.45527797 -1.58090508 0 0 Z " fill="#DCD7CE" transform="translate(594,258)"/>
<path d="M0 0 C-0.53625 0.391875 -1.0725 0.78375 -1.625 1.1875 C-2.40875 1.785625 -3.1925 2.38375 -4 3 C-5.5778125 4.051875 -5.5778125 4.051875 -7.1875 5.125 C-9.99707923 7.42503337 -10.48763483 9.23638971 -10.875 12.8125 C-10.94326031 14.20728577 -10.99391529 15.60355817 -11 17 C-11.33 17 -11.66 17 -12 17 C-12.85881072 6.27440833 -12.85881072 6.27440833 -9.9375 2.3125 C-6.34887552 -0.51258735 -4.45870674 -0.52455373 0 0 Z " fill="#DBD7CE" transform="translate(483,248)"/>
<path d="M0 0 C0.66 0.33 1.32 0.66 2 1 C2 6.28 2 11.56 2 17 C1.34 17 0.68 17 0 17 C0 13.04 0 9.08 0 5 C-1.98 5 -3.96 5 -6 5 C-5.67 4.34 -5.34 3.68 -5 3 C-2.4375 2.375 -2.4375 2.375 0 2 C0 1.34 0 0.68 0 0 Z " fill="#EEEBE1" transform="translate(941,254)"/>
<path d="M0 0 C0.66 0.33 1.32 0.66 2 1 C0.27268528 4.04336403 -1.33613433 6.69938874 -4 9 C-4.33 9 -4.66 9 -5 9 C-5.33 11.31 -5.66 13.62 -6 16 C-6.33 16 -6.66 16 -7 16 C-7.76140684 8.38593156 -7.76140684 8.38593156 -5.95703125 5.1015625 C-4.17646218 2.96070232 -2.50485776 1.25242888 0 0 Z " fill="#D1CCC3" transform="translate(861,247)"/>
<path d="M0 0 C0.66 0.33 1.32 0.66 2 1 C0.27268528 4.04336403 -1.33613433 6.69938874 -4 9 C-4.33 9 -4.66 9 -5 9 C-5.33 11.31 -5.66 13.62 -6 16 C-6.33 16 -6.66 16 -7 16 C-7.76140684 8.38593156 -7.76140684 8.38593156 -5.95703125 5.1015625 C-4.17646218 2.96070232 -2.50485776 1.25242888 0 0 Z " fill="#D0CBC3" transform="translate(327,247)"/>
<path d="M0 0 C0.96070434 2.88211302 1.10581883 4.69850044 1.0625 7.6875 C1.05347656 8.49574219 1.04445313 9.30398438 1.03515625 10.13671875 C1.02355469 10.75160156 1.01195312 11.36648438 1 12 C0.01 12.33 -0.98 12.66 -2 13 C-4.60018816 9.09971775 -4.15085514 5.52565431 -4 1 C-3.67 1 -3.34 1 -3 1 C-2.67 2.65 -2.34 4.3 -2 6 C-1.34 4.02 -0.68 2.04 0 0 Z " fill="#C2BDB4" transform="translate(423,254)"/>
<path d="M0 0 C0.33 0 0.66 0 1 0 C1.33 1.98 1.66 3.96 2 6 C2.33 4.35 2.66 2.7 3 1 C3.33 1 3.66 1 4 1 C4.33 4.63 4.66 8.26 5 12 C4.01 11.67 3.02 11.34 2 11 C1.67 11.66 1.34 12.32 1 13 C-0.32229189 10.35541621 -0.09677194 8.32238699 -0.0625 5.375 C-0.05347656 4.37210937 -0.04445312 3.36921875 -0.03515625 2.3359375 C-0.02355469 1.56507813 -0.01195312 0.79421875 0 0 Z " fill="#C2BDB5" transform="translate(247,254)"/>
<path d="M0 0 C0.928125 0.20625 1.85625 0.4125 2.8125 0.625 C1.8225 1.285 0.8325 1.945 -0.1875 2.625 C-2.21885683 4.25601643 -4.19681873 5.94398026 -6.1875 7.625 C-6.1875 6.965 -6.1875 6.305 -6.1875 5.625 C-6.8475 5.625 -7.5075 5.625 -8.1875 5.625 C-6.37307853 1.43787353 -4.89236161 -0.57557195 0 0 Z " fill="#DDD8CF" transform="translate(801.1875,247.375)"/>
<path d="M0 0 C7.21712538 -0.48929664 7.21712538 -0.48929664 11 1.875 C13 4 13 4 13 6 C7.83024354 5.11375604 3.5231594 4.07944772 0 0 Z " fill="#D6D1C8" transform="translate(673,247)"/>
<path d="M0 0 C0.928125 0.20625 1.85625 0.4125 2.8125 0.625 C1.8225 1.285 0.8325 1.945 -0.1875 2.625 C-2.21885683 4.25601643 -4.19681873 5.94398026 -6.1875 7.625 C-6.1875 6.965 -6.1875 6.305 -6.1875 5.625 C-6.8475 5.625 -7.5075 5.625 -8.1875 5.625 C-6.37307853 1.43787353 -4.89236161 -0.57557195 0 0 Z " fill="#DDD8CF" transform="translate(530.1875,247.375)"/>
<path d="M0 0 C0.144375 0.639375 0.28875 1.27875 0.4375 1.9375 C0.81007181 3.97545146 0.81007181 3.97545146 2 5 C2.07205511 6.68608966 2.08386068 8.37500659 2.0625 10.0625 C2.05347656 10.98160156 2.04445313 11.90070313 2.03515625 12.84765625 C2.02355469 13.55792969 2.01195312 14.26820313 2 15 C1.67 15 1.34 15 1 15 C0.67 12.69 0.34 10.38 0 8 C-0.99 8.99 -1.98 9.98 -3 11 C-3 10.34 -3 9.68 -3 9 C-3.66 8.67 -4.32 8.34 -5 8 C-4.360625 7.236875 -3.72125 6.47375 -3.0625 5.6875 C-0.85767219 3.11753287 -0.85767219 3.11753287 0 0 Z " fill="#CDC8BF" transform="translate(456,137)"/>
<path d="M0 0 C0.66 0 1.32 0 2 0 C2 5.94 2 11.88 2 18 C1.34 18 0.68 18 0 18 C-1.36884358 13.48281619 -0.47075246 10.41225737 1 6 C0.34 6 -0.32 6 -1 6 C-0.67 4.02 -0.34 2.04 0 0 Z " fill="#F1EDE4" transform="translate(599,253)"/>
<path d="M0 0 C0.69738281 0.00451172 1.39476562 0.00902344 2.11328125 0.01367188 C3.82555803 0.0253998 5.53779033 0.04333347 7.25 0.0625 C7.25 0.3925 7.25 0.7225 7.25 1.0625 C3.62 1.3925 -0.01 1.7225 -3.75 2.0625 C-3.75 2.3925 -3.75 2.7225 -3.75 3.0625 C-6.72 3.7225 -9.69 4.3825 -12.75 5.0625 C-12.42 3.7425 -12.09 2.4225 -11.75 1.0625 C-7.88276369 -0.20332219 -4.01848738 -0.0493765 0 0 Z " fill="#D1CCC3" transform="translate(515.75,86.9375)"/>
<path d="M0 0 C0.33 0 0.66 0 1 0 C1 3.63 1 7.26 1 11 C0.01 11.495 0.01 11.495 -1 12 C-1 10.68 -1 9.36 -1 8 C-1.99 7.67 -2.98 7.34 -4 7 C-3.34 6.34 -2.68 5.68 -2 5 C-1.29289322 3.35008418 -0.62056011 1.68437744 0 0 Z " fill="#F2EEE5" transform="translate(895,251)"/>
<path d="M0 0 C0.33 0 0.66 0 1 0 C1 3.63 1 7.26 1 11 C0.01 11.495 0.01 11.495 -1 12 C-1 10.68 -1 9.36 -1 8 C-1.99 7.67 -2.98 7.34 -4 7 C-3.34 6.34 -2.68 5.68 -2 5 C-1.29289322 3.35008418 -0.62056011 1.68437744 0 0 Z " fill="#F2EEE5" transform="translate(361,251)"/>
<path d="M0 0 C2.05078125 0.03255208 4.1015625 0.06510417 6.15234375 0.09765625 C5.16234375 0.75765625 4.17234375 1.41765625 3.15234375 2.09765625 C2.19328125 2.90203125 2.19328125 2.90203125 1.21484375 3.72265625 C-0.84765625 5.09765625 -0.84765625 5.09765625 -4.84765625 5.09765625 C-2.44354091 0.12915121 -2.44354091 0.12915121 0 0 Z " fill="#E3DED5" transform="translate(883.84765625,247.90234375)"/>
<path d="M0 0 C2.05078125 0.03255208 4.1015625 0.06510417 6.15234375 0.09765625 C5.16234375 0.75765625 4.17234375 1.41765625 3.15234375 2.09765625 C2.19328125 2.90203125 2.19328125 2.90203125 1.21484375 3.72265625 C-0.84765625 5.09765625 -0.84765625 5.09765625 -4.84765625 5.09765625 C-2.44354091 0.12915121 -2.44354091 0.12915121 0 0 Z " fill="#E3DED5" transform="translate(349.84765625,247.90234375)"/>
<path d="M0 0 C0.33 0 0.66 0 1 0 C1.12375 1.093125 1.2475 2.18625 1.375 3.3125 C1.75464801 7.07381802 1.75464801 7.07381802 4 10 C4.68177416 11.32567199 5.35191436 12.65753688 6 14 C4.35 14 2.7 14 1 14 C-0.04976964 10.85069107 -0.10131595 8.61185544 -0.0625 5.3125 C-0.05347656 4.31863281 -0.04445313 3.32476562 -0.03515625 2.30078125 C-0.02355469 1.54152344 -0.01195312 0.78226563 0 0 Z " fill="#D6D1C8" transform="translate(792,253)"/>
<path d="M0 0 C0.33 0 0.66 0 1 0 C1.12375 1.093125 1.2475 2.18625 1.375 3.3125 C1.75464801 7.07381802 1.75464801 7.07381802 4 10 C4.68177416 11.32567199 5.35191436 12.65753688 6 14 C4.35 14 2.7 14 1 14 C-0.04976964 10.85069107 -0.10131595 8.61185544 -0.0625 5.3125 C-0.05347656 4.31863281 -0.04445313 3.32476562 -0.03515625 2.30078125 C-0.02355469 1.54152344 -0.01195312 0.78226563 0 0 Z " fill="#D6D1C8" transform="translate(521,253)"/>
<path d="M0 0 C1.670625 0.061875 1.670625 0.061875 3.375 0.125 C2.776875 0.558125 2.17875 0.99125 1.5625 1.4375 C-0.61565003 3.02125381 -0.61565003 3.02125381 -2.1875 4.8125 C-3.625 6.125 -3.625 6.125 -6.625 6.125 C-5.71577947 1.57889733 -4.95184304 0.17075321 0 0 Z " fill="#EAE5DC" transform="translate(615.625,247.875)"/>
<path d="M0 0 C0.33 0 0.66 0 1 0 C1 4.29 1 8.58 1 13 C0.01 13.495 0.01 13.495 -1 14 C-1.33 10.7 -1.66 7.4 -2 4 C-1.34 4 -0.68 4 0 4 C0 2.68 0 1.36 0 0 Z " fill="#F3EFE6" transform="translate(438,248)"/>
<path d="M0 0 C1.8871875 0.061875 1.8871875 0.061875 3.8125 0.125 C3.8125 0.455 3.8125 0.785 3.8125 1.125 C2.141875 1.24875 2.141875 1.24875 0.4375 1.375 C-3.24503944 1.70373787 -3.24503944 1.70373787 -4.625 4.1875 C-4.810625 4.826875 -4.99625 5.46625 -5.1875 6.125 C-6.1775 6.125 -7.1675 6.125 -8.1875 6.125 C-7.875 4.25 -7.875 4.25 -7.1875 2.125 C-4.09861478 0.06574319 -3.47814073 -0.1140374 0 0 Z " fill="#DAD5CC" transform="translate(934.1875,246.875)"/>
<path d="M0 0 C1.8871875 0.061875 1.8871875 0.061875 3.8125 0.125 C3.8125 0.455 3.8125 0.785 3.8125 1.125 C2.141875 1.24875 2.141875 1.24875 0.4375 1.375 C-3.24503944 1.70373787 -3.24503944 1.70373787 -4.625 4.1875 C-4.810625 4.826875 -4.99625 5.46625 -5.1875 6.125 C-6.1775 6.125 -7.1675 6.125 -8.1875 6.125 C-7.875 4.25 -7.875 4.25 -7.1875 2.125 C-4.09861478 0.06574319 -3.47814073 -0.1140374 0 0 Z " fill="#D9D4CC" transform="translate(210.1875,246.875)"/>
<path d="M0 0 C0.33 0.66 0.66 1.32 1 2 C1.66 2 2.32 2 3 2 C3 4.64 3 7.28 3 10 C2.67 10 2.34 10 2 10 C1.67 8.02 1.34 6.04 1 4 C0.67 6.97 0.34 9.94 0 13 C-0.33 13 -0.66 13 -1 13 C-1.02696365 11.20841511 -1.04637917 9.41671527 -1.0625 7.625 C-1.07410156 6.62726563 -1.08570313 5.62953125 -1.09765625 4.6015625 C-1 2 -1 2 0 0 Z " fill="#BBB4AC" transform="translate(608,252)"/>
<path d="M0 0 C2.01822917 0.06510417 4.03645833 0.13020833 6.0546875 0.1953125 C5.2503125 0.535625 5.2503125 0.535625 4.4296875 0.8828125 C1.26967887 2.62913306 -1.2130108 4.8355974 -3.9453125 7.1953125 C-4.0703125 4.8203125 -4.0703125 4.8203125 -3.9453125 2.1953125 C-1.9453125 0.1953125 -1.9453125 0.1953125 0 0 Z " fill="#F0EBE2" transform="translate(673.9453125,247.8046875)"/>
<path d="M0 0 C1.670625 0.061875 1.670625 0.061875 3.375 0.125 C0.5137836 2.45636151 -2.1685235 3.85156129 -5.625 5.125 C-6.615 5.62 -6.615 5.62 -7.625 6.125 C-4.84462617 0.16705607 -4.84462617 0.16705607 0 0 Z " fill="#E4DFD7" transform="translate(281.625,247.875)"/>
<path d="M0 0 C0.33 0 0.66 0 1 0 C1.33 3.3 1.66 6.6 2 10 C1.01 10.33 0.02 10.66 -1 11 C-1.02688151 9.35425434 -1.04634123 7.70838587 -1.0625 6.0625 C-1.07410156 5.14597656 -1.08570313 4.22945313 -1.09765625 3.28515625 C-1 1 -1 1 0 0 Z " fill="#EDE9E0" transform="translate(609,255)"/>
<path d="M0 0 C1.32 0.33 2.64 0.66 4 1 C3.25 2.9375 3.25 2.9375 2 5 C-0.125 5.75 -0.125 5.75 -2 6 C-1.49396008 3.83125748 -1.00016187 2.00032373 0 0 Z " fill="#D2CDC4" transform="translate(623,264)"/>
<path d="M0 0 C0.33 0 0.66 0 1 0 C1 2.97 1 5.94 1 9 C0.67 7.68 0.34 6.36 0 5 C-1.98 5 -3.96 5 -6 5 C-5.67 4.34 -5.34 3.68 -5 3 C-2.4375 2.375 -2.4375 2.375 0 2 C0 1.34 0 0.68 0 0 Z " fill="#F1EDE4" transform="translate(217,254)"/>
<path d="M0 0 C0.598125 0.20625 1.19625 0.4125 1.8125 0.625 C0.8225 0.955 -0.1675 1.285 -1.1875 1.625 C-0.8575 2.285 -0.5275 2.945 -0.1875 3.625 C-3.1875 5.625 -3.1875 5.625 -6.1875 5.625 C-5.875 3.75 -5.875 3.75 -5.1875 1.625 C-2.1875 -0.375 -2.1875 -0.375 0 0 Z " fill="#D8D3CA" transform="translate(590.1875,247.375)"/>
<path d="M0 0 C2.0625 0.4375 2.0625 0.4375 4 1 C2.6875 3.5 2.6875 3.5 1 6 C0.01 6 -0.98 6 -2 6 C-1.125 1.125 -1.125 1.125 0 0 Z " fill="#D6D2C9" transform="translate(394,238)"/>
<path d="M0 0 C2.97 0.495 2.97 0.495 6 1 C6 1.99 6 2.98 6 4 C4.02 4 2.04 4 0 4 C0 2.68 0 1.36 0 0 Z " fill="#E1DCD3" transform="translate(512,267)"/>
<path d="M0 0 C0.66 0.99 1.32 1.98 2 3 C1.67 3.99 1.34 4.98 1 6 C-0.32 6 -1.64 6 -3 6 C-3 5.34 -3 4.68 -3 4 C-4.32 3.67 -5.64 3.34 -7 3 C-5.5459375 2.5359375 -5.5459375 2.5359375 -4.0625 2.0625 C-1.15934208 1.30476658 -1.15934208 1.30476658 0 0 Z " fill="#CBC6BD" transform="translate(461,265)"/>
<path d="M0 0 C0.66 0.99 1.32 1.98 2 3 C1.67 3.99 1.34 4.98 1 6 C-0.32 6 -1.64 6 -3 6 C-3 5.34 -3 4.68 -3 4 C-4.32 3.67 -5.64 3.34 -7 3 C-5.5459375 2.5359375 -5.5459375 2.5359375 -4.0625 2.0625 C-1.15934208 1.30476658 -1.15934208 1.30476658 0 0 Z " fill="#CAC6BD" transform="translate(191,265)"/>
<path d="M0 0 C0.33 0 0.66 0 1 0 C1.36625971 4.51720311 1.36625971 4.51720311 -0.375 6.8125 C-2 8 -2 8 -4 8 C-2.87548273 5.0280615 -1.77706209 2.66559313 0 0 Z " fill="#EAE5DC" transform="translate(919,263)"/>
<path d="M0 0 C1.31223496 3.93670488 0.24296256 6.12488144 -1 10 C-1.33 10 -1.66 10 -2 10 C-2.1953125 3.9453125 -2.1953125 3.9453125 -2 2 C-1.34 1.34 -0.68 0.68 0 0 Z " fill="#F2EEE5" transform="translate(250,252)"/>
<path d="M0 0 C2.625 -0.1875 2.625 -0.1875 5 0 C5 0.99 5 1.98 5 3 C2.69 3 0.38 3 -2 3 C-1.34 2.01 -0.68 1.02 0 0 Z " fill="#E7E3DA" transform="translate(144,247)"/>
<path d="M0 0 C1.32 0 2.64 0 4 0 C4 1.32 4 2.64 4 4 C2.35 3.67 0.7 3.34 -1 3 C-0.67 2.01 -0.34 1.02 0 0 Z " fill="#D6D1C8" transform="translate(755,239)"/>
<path d="M0 0 C2.1519437 3.22791555 2.20086443 4.28400809 2 8 C1.01 7.67 0.02 7.34 -1 7 C-2 4 -2 4 -1.0625 1.8125 C-0.5365625 0.9153125 -0.5365625 0.9153125 0 0 Z " fill="#C3BEB6" transform="translate(263,263)"/>
<path d="M0 0 C-0.33 3.63 -0.66 7.26 -1 11 C-1.33 11 -1.66 11 -2 11 C-2.33 7.7 -2.66 4.4 -3 1 C-1 0 -1 0 0 0 Z " fill="#E8E3DB" transform="translate(266,251)"/>
<path d="M0 0 C1.98 0.495 1.98 0.495 4 1 C3.67 1.99 3.34 2.98 3 4 C1.68 4 0.36 4 -1 4 C-0.67 2.68 -0.34 1.36 0 0 Z " fill="#DCD7CF" transform="translate(154,239)"/>
<path d="M0 0 C4.55384615 -0.36923077 4.55384615 -0.36923077 6.8125 1.5 C7.204375 1.995 7.59625 2.49 8 3 C5.36 3 2.72 3 0 3 C0 2.01 0 1.02 0 0 Z " fill="#E6E2D9" transform="translate(677,148)"/>
</svg>
